<?xml version="1.0" encoding="UTF-8"?>
<svg id="Artwork" xmlns="http://www.w3.org/2000/svg" version="1.1" viewBox="0 0 121.58 775.96">
  <!-- Generator: Adobe Illustrator 30.0.0, SVG Export Plug-In . SVG Version: 2.1.1 Build 123)  -->
  <rect x="4.1" y="120.53" width="113.39" height="56.69" fill="none"/>
  <rect x="4.1" y="35.49" width="113.39" height="56.69" fill="none"/>
  <rect x="4.1" y="290.61" width="113.39" height="56.69" fill="none"/>
  <rect x="4.1" y="205.57" width="113.39" height="56.69" fill="none"/>
  <rect x="4.1" y="375.65" width="113.39" height="56.69" fill="none"/>
  <rect x="18.27" y="490.51" width="85.04" height="42.52" fill="none"/>
  <rect x="18.27" y="554.29" width="85.04" height="42.52" fill="none"/>
  <rect x="18.27" y="681.85" width="85.04" height="42.52" fill="none"/>
  <rect x="18.27" y="618.07" width="85.04" height="42.52" fill="none"/>
  <rect x="18.27" y="745.63" width="85.04" height="42.52" fill="none"/>
  <g>
    <path d="M0,.12h5.31v1.75h-3.05v1.67h2.43v1.66h-2.43v2.78H0V.12Z"/>
    <path d="M6.41.12h2.28v7.87h-2.28V.12Z"/>
    <path d="M10.24.12h5.31v1.75h-3.05v1.67h2.43v1.66h-2.43v2.78h-2.27V.12Z"/>
    <path d="M17.91.12h2.92l2.5,7.87h-2.39l-.42-1.46h-2.61l-.42,1.46h-2.1L17.91.12ZM18.35,4.97h1.73l-.86-3.03-.87,3.03Z"/>
    <path d="M28.29.12h2.92l2.5,7.87h-2.39l-.42-1.46h-2.61l-.42,1.46h-2.1L28.29.12ZM28.73,4.97h1.73l-.86-3.03-.87,3.03Z"/>
    <path d="M34.61.12h3.08c2.06,0,3.2.84,3.2,2.5v.04c0,1.12-.59,1.75-1.42,2.07l1.88,3.26h-2.38l-1.6-2.82h-.53v2.82h-2.24V.12ZM37.58,3.71c.76,0,1.13-.32,1.13-.96v-.04c0-.64-.4-.89-1.12-.89h-.74v1.89h.73Z"/>
    <path d="M44.18.12h2.92l2.5,7.87h-2.39l-.42-1.46h-2.61l-.42,1.46h-2.1L44.18.12ZM44.62,4.97h1.73l-.86-3.03-.87,3.03Z"/>
    <path d="M50.49.12h3.51c1.86,0,2.65.84,2.65,2.06v.04c0,.88-.45,1.46-1.33,1.69.97.17,1.57.75,1.57,1.84v.04c0,1.41-.91,2.19-2.86,2.19h-3.54V.12ZM53.55,3.25c.7,0,.97-.24.97-.8v-.04c0-.54-.29-.78-.97-.78h-.86v1.63h.86ZM53.62,6.48c.72,0,1.05-.33,1.05-.91v-.04c0-.59-.32-.9-1.11-.9h-.87v1.86h.94Z"/>
    <path d="M59.72,4.1v-.09c0-2.42,1.72-4.02,4.02-4.02,2.05,0,3.47.95,3.65,3.03h-2.32c-.09-.8-.53-1.24-1.32-1.24-1.01,0-1.65.79-1.65,2.22v.09c0,1.42.61,2.22,1.68,2.22.79,0,1.35-.42,1.46-1.29h2.24c-.15,2.04-1.63,3.09-3.66,3.09-2.75,0-4.1-1.61-4.1-4.02Z"/>
    <path d="M68.42,4.8V.12h2.26v4.58c0,1.11.28,1.65,1.23,1.65s1.23-.51,1.23-1.68V.12h2.28v4.64c0,2.29-1.34,3.36-3.51,3.36s-3.49-1.12-3.49-3.32Z"/>
    <path d="M76.88.12h2.99c2.16,0,3.16.96,3.16,2.63v.04c0,1.65-1.11,2.54-3.06,2.54h-.85v2.65h-2.24V.12ZM79.77,3.8c.73,0,1.11-.34,1.11-.99v-.04c0-.67-.4-.95-1.1-.95h-.66v1.98h.65Z"/>
    <path d="M85.55,7.67l2.75-2.92c.78-.84,1.3-1.51,1.3-2.17,0-.53-.28-.88-.84-.88s-.91.34-1.01,1.28h-2.05c.08-1.97,1.27-2.97,3.17-2.97s2.95,1.03,2.95,2.49c0,1.08-.61,1.89-1.49,2.74l-1.1,1.07h2.64v1.68h-6.33v-.32Z"/>
    <path d="M92.56,4.22v-.33c0-2.49,1.55-3.88,3.63-3.88s3.63,1.29,3.63,3.84v.31c0,2.5-1.43,3.96-3.67,3.96s-3.59-1.42-3.59-3.89ZM97.57,4.2v-.32c0-1.44-.42-2.17-1.38-2.17s-1.38.72-1.38,2.17v.33c0,1.46.43,2.16,1.4,2.16s1.35-.72,1.35-2.17Z"/>
    <path d="M100.31,7.67l2.75-2.92c.78-.84,1.3-1.51,1.3-2.17,0-.53-.28-.88-.84-.88s-.91.34-1.01,1.28h-2.05c.08-1.97,1.27-2.97,3.17-2.97s2.95,1.03,2.95,2.49c0,1.08-.61,1.89-1.49,2.74l-1.1,1.07h2.64v1.68h-6.33v-.32Z"/>
    <path d="M107.27,5.51h2.05c.08.55.3.91,1.02.91.65,0,.95-.48.95-1.11,0-.7-.39-1.12-1.07-1.12-.64,0-1.03.25-1.3.56h-1.34l.17-4.63h5.3v1.65h-3.67l-.04,1.74c.3-.43.86-.84,1.84-.84,1.44,0,2.39.97,2.39,2.67s-1.2,2.77-3.19,2.77c-2.09,0-3.04-1.13-3.09-2.61Z"/>
    <path d="M114.9,1.05h-.91V.12h3v.92h-.91v2.61h-1.18V1.05ZM117.42.12h1.41l.65,1.74.66-1.74h1.44v3.53h-1.2V1.64l-.79,2.01h-.36l-.78-2.01v2.01h-1.02V.12Z"/>
    <path d="M31.87,13.32h2.99c2.16,0,3.16.96,3.16,2.63v.04c0,1.65-1.11,2.54-3.06,2.54h-.85v2.65h-2.24v-7.87ZM34.76,17c.73,0,1.11-.34,1.11-.99v-.04c0-.67-.4-.95-1.1-.95h-.66v1.98h.65Z"/>
    <path d="M40.39,13.32h2.92l2.5,7.87h-2.39l-.42-1.46h-2.61l-.42,1.46h-2.1l2.52-7.87ZM40.83,18.17h1.73l-.86-3.03-.87,3.03Z"/>
    <path d="M46.71,13.32h3.08c2.06,0,3.2.84,3.2,2.5v.04c0,1.12-.59,1.75-1.42,2.07l1.88,3.26h-2.38l-1.6-2.82h-.53v2.82h-2.24v-7.87ZM49.68,16.91c.76,0,1.13-.32,1.13-.96v-.04c0-.64-.4-.89-1.12-.89h-.74v1.89h.73Z"/>
    <path d="M55.68,15.06h-2.04v-1.74h6.34v1.74h-2.04v6.13h-2.27v-6.13Z"/>
    <path d="M60.97,13.32h2.54l2.52,4.43v-4.43h1.97v7.87h-2.18l-2.87-4.94v4.94h-1.98v-7.87Z"/>
    <path d="M69.52,13.32h5.43v1.74h-3.19v1.35h2.54v1.61h-2.54v1.43h3.37v1.74h-5.61v-7.87Z"/>
    <path d="M76.25,13.32h3.08c2.06,0,3.2.84,3.2,2.5v.04c0,1.12-.59,1.75-1.42,2.07l1.88,3.26h-2.38l-1.6-2.82h-.53v2.82h-2.24v-7.87ZM79.22,16.91c.76,0,1.13-.32,1.13-.96v-.04c0-.64-.4-.89-1.12-.89h-.74v1.89h.73Z"/>
    <path d="M83.3,18.69h2.15c.06.56.31,1.02,1.24,1.02.65,0,1.01-.32,1.01-.78s-.3-.62-1.24-.76c-2.22-.26-2.97-.92-2.97-2.51,0-1.42,1.17-2.45,3.05-2.45s2.96.79,3.1,2.45h-2.09c-.08-.56-.4-.85-1.01-.85s-.91.28-.91.67c0,.44.24.64,1.22.77,1.99.22,3.01.74,3.01,2.44,0,1.44-1.14,2.62-3.17,2.62-2.2,0-3.32-.92-3.39-2.63Z"/>
    <path d="M83.53,133.8s-2.13.84-4.6,3.57c-2.48,2.73-3.91,5.79-2.85,6.6.41.31,1.35.36,3.07-1.18,1.34-1.2,2.7-2.78,3.62-5.03,1.11-2.7.75-3.93.75-3.96h0ZM97.06,138.7c-2.75-1.41-4.76-3.13-6.85-4.2-1.99-1.02-3.29-1.45-4.89-1.24-.27.04-.66.17-.66.17,0,0,.83,2.83-2.47,7.6-3.34,4.82-6.37,4.8-7.24,3.47-.9-1.4.26-4.26,2.21-6.79,2.04-2.66,5.62-4.86,5.62-4.86,0,0-1.14-.7-3.95.89-2.73,1.55-7.45,5.24-11.81,11.46-4.36,6.22-5.23,9.65-5.86,12.34-.63,2.7-.05,5.58,2.94,5.58s6.46-4.56,7.44-6.15c1.82-2.95,3.01-7.48.53-6.85-1.22.31-2.21,1.67-2.84,2.97-.64,1.34-.9,2.62-.9,2.62,0,0-1.03.37-2.42,1.41-1.39,1.04-2.29,2.03-2.29,2.03,0,0,0-2.15,1.72-5.64,1.71-3.48,4.86-5.08,6.65-5.23,1.61-.13,3.7,1.23,1.93,6.27-1.77,5.04-7,11.15-12.49,11.23-5.07.07-8.4-6.4-1.34-17.7,7.8-12.49,16.97-16.33,19.95-16.76,2.98-.43,3.94.89,3.94.89,0,0,2.49-1.15,5.66-.94,3.63.25,6.44,2.82,10.15,4.62-.97.94-1.89,1.9-2.72,2.81h0ZM113.38,134.49c-2.52,1.62-6,3.08-9.35,2.76-.85.88-1.76,1.89-2.66,3,5.81,1.14,10.89-2.45,13.59-5.52,1.69-1.91,2.52-3.62,2.52-3.62,0,0-1.61,1.77-4.1,3.38h0ZM105.66,150.85c.07-.13.11-.24.11-.24,0,0-.07-.49-.53-.51-.55-.02-1.31.08-3.28,2.27-1.97,2.18-3.16,4.08-4.2,5.97-1.13,2.07-1.59,3.61-.94,4.01.19.11.46.13.68.07.44-.11.94-.52,1.7-1.4.35-.41.75-1,1.22-1.64,1.3-1.78,4.59-7.4,5.24-8.53h0ZM85.11,153.25c.33-.87.75-2.56-.13-3.22-.94-.71-3.33.95-3.34,2.65-.01,1.74,1.69,2.53,2.1,2.64.23.06.31.05.42-.14.07-.12.62-1.07.95-1.93h0ZM83.31,156.41c-.06-.02-.84-.38-1.65-1.05-.8-.67-1.21-1.44-1.24-1.5-.03-.05-.07,0-.1.04-.04.05-.18.18-1.46,2.05-1.28,1.88-3.23,5.75-1.46,6.41,1.14.42,3.03-1.57,4.06-2.89.96-1.23,1.86-2.78,1.9-2.9.05-.11,0-.14-.06-.16h0ZM103.43,160.87c-.48.78-1.03,2.25.56,1.33,1.94-1.12,4.7-5.31,4.7-5.31h1.25s-1.65,2.6-3.79,4.98c-1.96,2.18-4.36,4.15-6.05,3.96-1.97-.22-1.35-2.81-1.35-2.81,0,0-2.83,3-4.78,2.79-2.63-.29-1.83-3.54-1.83-3.54,0,0-2.98,3.66-5.01,3.54-3.18-.18-2.38-4.07-1.5-6.78.48-1.46.92-2.61.92-2.61,0,0-.32.08-.99.18-.35.05-1,.09-1,.09,0,0-1.32,2.34-2.38,3.75-1.06,1.41-5.57,6.25-8.22,5.28-2.45-.9-1.64-4.65-.21-7.64,2.08-4.35,7.93-10.6,11.31-9.78,3.5.85.08,7.24.08,7.24,0,0,0,.02.04.04.07.03.25.04.67-.04.67-.13,1.28-.38,1.28-.38,0,0,3.52-7.38,7.41-12.2,3.89-4.83,11.64-13.14,14.69-11.13.75.49.41,2.2-.59,4.26-.44.14-.9.27-1.38.36.67-1.21,1.12-2.24,1.25-2.96.45-2.49-5.36,2.76-9.52,8.42-4.15,5.66-6.65,10.78-6.65,10.78,0,0,.84-.48,2.14-1.53,1.37-1.1,3.24-2.82,5.28-4.93,1.37-1.42,2.98-3.2,4.49-5.19.45-.02.89-.07,1.32-.14-1.69,2.27-3.46,4.34-4.96,5.86-1.65,1.68-3.45,3.48-5.01,4.8-2.48,2.09-4.4,3.27-4.4,3.27,0,0-3.64,7.33-1.66,7.8,1.16.28,3.46-3.26,3.46-3.26,0,0,3-4.57,4.8-6.63,2.46-2.8,4.59-4.42,6.7-4.45,1.23-.02,1.97,1.29,1.97,1.29l.58-.9h3.58s-6.68,11.33-7.21,12.19h0ZM113.38,134.49c-2.52,1.62-6,3.08-9.35,2.76-.85.88-1.76,1.89-2.66,3,5.81,1.14,10.89-2.45,13.59-5.52,1.69-1.91,2.52-3.62,2.52-3.62,0,0-1.61,1.77-4.1,3.38h0ZM106.14,164.12h.41c.15,0,.26.02.32.04.13.05.19.15.19.3,0,.11-.04.19-.12.23-.04.03-.1.05-.17.06.09.01.17.05.2.11.04.07.07.12.07.19v.09s0,.06,0,.09c0,.04,0,.05.01.06v.02s-.19,0-.19,0h0s0-.02,0-.03v-.04s0-.1,0-.1c0-.14-.04-.23-.11-.27-.04-.03-.12-.04-.23-.04h-.17v.47h-.2v-1.19h0ZM106.86,164.49c0-.09-.03-.15-.08-.18-.05-.03-.14-.04-.25-.04h-.18v.43h.19c.09,0,.16-.01.2-.03.08-.04.12-.1.12-.18h0ZM107.66,164.73c0,.3-.1.55-.32.77-.21.21-.47.32-.77.32s-.56-.1-.77-.32c-.21-.21-.32-.47-.32-.77s.11-.56.32-.77c.21-.21.46-.32.76-.32s.56.11.77.32c.21.21.32.47.32.77h0ZM106.58,163.79c-.26,0-.48.09-.66.27-.18.18-.27.4-.27.66s.09.48.27.67c.18.17.4.27.66.27s.48-.09.66-.27c.19-.19.27-.41.27-.67s-.09-.48-.27-.66c-.18-.18-.4-.27-.66-.27h0ZM63.16,140.08h-3.4l-1.92,3.11h3.4l1.92-3.11h0ZM47.05,150.84c1.45-1.98,5.44-8.94,5.44-8.94,0,0-.07-.48-.53-.51-.55-.02-1.47.16-3.3,2.45-1.84,2.3-3.25,4.12-4.28,6.01-1.13,2.07-1.63,3.53-.98,3.93.18.12.46.13.68.07.43-.11.98-.53,1.74-1.41.36-.41.76-.96,1.23-1.61h0ZM28.79,141.45c-.94-.71-3.33.95-3.34,2.65-.02,1.74,2.16,2.24,2.44,2.25,0,0,.25.07.35-.14.06-.13.36-.67.68-1.54.33-.86.75-2.56-.13-3.22h0ZM27.38,147.45c-.06-.02-.97-.28-1.85-.85-.88-.56-1.29-1.4-1.32-1.46-.03-.06-.06-.01-.1.04-.04.05-.22.29-1.5,2.17-1.28,1.88-3.17,5.72-1.4,6.38,1.14.42,3.04-1.57,4.08-2.89.96-1.23,2.1-3.12,2.15-3.22.05-.11,0-.14-.06-.16h0ZM55.17,148.59h1.25s-6.24,9.03-9.77,8.62c-1.97-.23-1.39-2.66-1.39-2.66,0,0-2.77,3.24-5.3,2.59-2.31-.59-.82-4.42-.82-4.42-.26.1-5.24,5.73-8.75,4.38-3.67-1.41-1.77-6.12-1.07-7.53.59-1.2,1.24-2.36,1.24-2.36,0,0-.56.16-.91.24-.35.08-.88.18-.88.18,0,0-1.73,2.82-2.79,4.23-1.06,1.41-5.57,6.25-8.22,5.28-2.66-.96-2-4.67-.51-7.62,2.42-4.79,8.16-10.67,11.61-9.79,3.49.89.6,6.55.6,6.55,0,0,.7.09,2.36-1.04,2.4-1.64,5.55-6.04,8.98-5.53,1.61.24,3.11,1.89,1.06,5.03-.66,1-1.76,1.91-2.6,1.02-.52-.55-.07-1.56.48-2.26.78-.98,1.85-.84,1.85-.84,0,0,.56-1.3-.87-1.27-1.17.02-4.12,2.74-5.78,5.48-1.53,2.52-3.84,6.81-1.51,7.75,2.13.86,6.18-3.95,8.06-6.47,1.87-2.52,6.14-8.24,9.73-8.47,1.23-.08,1.97,1.04,1.97,1.04l.41-.65h3.58s-6.75,11.28-7.28,12.13c-.41.67-.97,2.18.56,1.33,1.53-.85,4.7-4.93,4.7-4.93h0ZM53.23,166.66c-2.71-1.91-6.01-2.75-9.02-2.63-3.03.12-4.4,2.39-4.4,2.39-1.37-2.39-4.08-3.85-8.26-3.81-6.75.08-13.46,3.2-18.77,3.2s-8.81-3.2-8.69-8.88c.21-9.96,8.63-18.95,14.93-22.99,3.62-2.32,6.65-3.01,8.63-2.79,1.45.16,3.19,1.83,2.09,4.29-1.61,3.6-3.84,3.3-3.75,1.58.05-1.12.79-1.82,1.35-2.21.36-.25.98-.32,1.31-.32.32-.27.56-2.24-2.03-1.59-2.59.65-5.71,3.19-8.69,6.47-2.98,3.29-7.6,9.51-8.75,16.03-.53,3.03-.17,8.54,6.99,8.47,6.08-.05,15.05-4.05,23.29-3.98,3.2.03,5.98.89,8.15,2.23,2.14,1.32,4.7,3.24,5.6,4.54h0Z"/>
    <polygon points="105.94 92.19 73.2 35.49 55.68 45.61 82.57 92.19 105.94 92.19"/>
    <polygon points="74.76 92.19 53.16 54.77 35.64 64.89 51.4 92.19 74.76 92.19"/>
    <polygon points="43.62 92.19 33.17 74.09 15.65 84.21 20.25 92.19 43.62 92.19"/>
    <path d="M43.01,340.15c.37-.02.95-.11,1.52-.11s1.3.1,1.61.11c-.93-1.99-2.28-5.1-3.07-6.9-.74-1.73-1.98-4.62-2.96-7.43-.23.07-.43.11-.65.11-.26,0-.46-.04-.69-.11-.49,1.69-1.69,4.37-3.77,9.02l-2.38,5.31c.28-.03.57-.11.92-.11s.73.08.99.11c.33-1.17.98-2.88,1.64-4.47.82-.04,1.65-.08,2.48-.08.88,0,1.74.04,2.63.08l.86,2.19.87,2.28h0ZM40.68,334.42c-.64.04-1.25.07-1.89.07-.72,0-1.41-.06-2.14-.07l2.1-5.07,1.93,5.07" fill-rule="evenodd"/>
    <path d="M47.95,330.78c0,3.53,0,6.93-.23,9.37.46-.02,1.04-.11,1.49-.11s.97.1,1.43.11c-.16-1.66-.2-3.89-.2-6.96,0-2.08,0-5.64.23-7.16-.5.06-1.01.11-1.46.11-.3,0-1.07-.07-1.47-.11.21,1.99.21,3.46.21,4.74"/>
    <path d="M56.82,327.14c.3-.03,1.06-.1,1.45-.1.69,0,1.37.1,1.91.51.73.53.87,1.27.87,2.13,0,1.35-.76,2.85-2.82,2.85-.54,0-1.03-.04-1.42-.06v-5.34h0ZM60.19,333.15c1.88-.35,3.58-1.52,3.58-3.81,0-.87-.33-1.71-.94-2.3-.89-.85-1.9-1.01-3.24-1.01-.48,0-2.86.1-3.39.1-1.05,0-1.6-.06-2.06-.1.15,2.66.15,2.94.15,5.64,0,3.97-.02,4.42-.19,8.48.46-.06.95-.11,1.43-.11.51,0,.97.08,1.38.11,0-.54-.08-3.19-.08-3.78v-2.93h.49c1.11,1.56,2.39,3.39,3.44,5.01.31.48.77,1.24,1.07,1.71.62-.09.87-.11,1.67-.11.74,0,1.26.06,1.83.11-1.3-1.62-1.86-2.34-3.49-4.62-.31-.44-.76-1.11-1.08-1.54l-.58-.83" fill-rule="evenodd"/>
    <path d="M70.92,335.33c-.97-2.85-2.31-6.87-2.95-9.29-.51.07-.95.11-1.43.11s-1.2-.07-1.61-.11c.84,2.22,1.56,4.19,2.12,5.76.96,2.67,1.56,4.53,2.31,6.8l.51,1.56c.29-.06.62-.11.85-.11s.43.03.78.11c.32-1.07.71-2.38,1-3.24.8-2.34.91-2.66,1.96-5.58l.62-1.72c.22.66.62,1.72.84,2.37.22.64,1.28,3.79,1.52,4.5.35.93.41,1.18,1.17,3.68.19-.02.58-.11.9-.11.29,0,.51.06.82.11.78-2.45.86-2.69,2.01-6,1.14-3.21,1.84-5.04,3.07-8.12-.29.07-.61.11-.92.11-.39,0-.72-.06-.95-.11-.74,2.66-1.11,3.96-1.7,5.74-.96,2.87-1.1,3.22-1.68,4.78-.67-1.77-1.31-3.57-1.9-5.38-.35-.99-1.59-5.1-1.61-5.14-.3.06-.51.11-.92.11-.36,0-.63-.07-.9-.11-.62,2.5-2.8,8.56-3.02,9.12l-.51,1.34-.39-1.17"/>
    <path d="M94.03,340.15c.37-.02.95-.11,1.52-.11s1.31.1,1.61.11c-.92-1.99-2.29-5.1-3.07-6.9-.74-1.73-1.97-4.62-2.97-7.43-.22.07-.43.11-.65.11-.25,0-.47-.04-.69-.11-.5,1.69-1.7,4.37-3.77,9.02l-2.38,5.31c.29-.03.57-.11.92-.11.33,0,.72.08.99.11.33-1.17.98-2.88,1.64-4.47.82-.04,1.64-.08,2.48-.08s1.74.04,2.62.08l.88,2.19.86,2.28h0ZM91.7,334.42c-.65.04-1.25.07-1.89.07-.72,0-1.43-.06-2.15-.07l2.11-5.07,1.93,5.07" fill-rule="evenodd"/>
    <path d="M102.67,334.64c0-.18.12-.41.26-.65.88-1.49,1.68-3.04,2.59-4.53.31-.48,1.82-2.87,2.13-3.42-.23.07-.45.11-.86.11-.47,0-.88-.06-1.21-.11-1.49,3.24-1.8,3.94-3.55,6.95-1.76-3.06-2.54-4.69-3.6-6.95-.61.1-1.21.11-1.7.11-.45,0-.92-.04-1.7-.11,1.07,1.78,2.83,4.63,3.89,6.44l1.21,2.09c0,1.28-.06,3.98-.12,5.58.39-.03.95-.11,1.37-.11.47,0,.95.08,1.42.11-.07-1.91-.14-3.02-.14-4.76v-.75"/>
    <path d="M108.85,337.07c-.1.98-.11,1.25-.49,2.32.76.37,2.09,1.06,3.87,1.06,3.77,0,5.21-2.41,5.21-4.51,0-.58-.14-1.79-.99-2.72-.61-.66-1.21-.88-2.81-1.5-1.8-.7-2.85-1.11-2.85-2.61,0-1.21.8-2.22,2.42-2.22,1.29,0,2.41.61,2.7,1.78h.29c.19-.77.23-.94.65-1.95-1.02-.46-1.91-.85-3.42-.85-3.73,0-4.81,2.31-4.81,4.12s.61,2.75,2.6,3.65c.57.23,1.54.62,2.13.86.39.16,1.68.74,1.68,2.38,0,1.47-1.07,2.57-2.69,2.57-1.21,0-2.25-.31-3.21-2.36h-.27"/>
    <path d="M26.3,328.52c1.05-.74,2.69-1.65,3.88-2.18l-7.9-4.9c4.86-1.71,7.9-6.05,7.9-11.95,0-8.4-6.4-11.96-12.94-11.96-7.06,0-13.15,3.92-13.15,12.79,0,1.89.42,5.46,3.36,8.43,3.04,3.07,6.64,3.53,9.69,3.53.38,0,.77,0,1.15-.03l8.01,6.27h0ZM8.89,310.5c0-8.81,4.72-11.18,8.29-11.18,5.73,0,8.22,4.76,8.22,9.82,0,2.9-.35,5.63-1.79,7.84-1.43,2.19-3.81,3.53-6.4,3.53-6.47,0-8.33-6.16-8.33-10" fill-rule="evenodd"/>
    <path d="M50.45,321.8c.62-.04,1.61-.21,2.58-.21s2.21.17,2.73.21c-1.57-3.39-3.88-8.67-5.21-11.72-1.26-2.94-3.36-7.83-5.04-12.62-.38.11-.73.18-1.12.18-.42,0-.76-.07-1.15-.18-.84,2.87-2.88,7.41-6.4,15.32l-4.05,9.02c.49-.07.98-.21,1.57-.21.56,0,1.23.14,1.68.21.56-2,1.68-4.9,2.8-7.59,1.4-.07,2.8-.14,4.19-.14,1.5,0,2.98.07,4.48.14l1.47,3.71,1.47,3.88h0ZM46.5,312.04c-1.09.07-2.13.14-3.22.14-1.23,0-2.41-.1-3.63-.14l3.56-8.6,3.29,8.6" fill-rule="evenodd"/>
    <path d="M65.96,304.07c0-1.33.04-2.66.08-3.92,2.41,0,4.88.04,6.95.25-.11-.57-.18-.87-.18-1.26,0-.28.07-.74.18-1.33-3.36.17-6.43.21-9.34.21-2.68,0-6.56-.04-9.33-.21.11.42.17.87.17,1.29s-.06.87-.17,1.29c1.78-.17,5.15-.25,5.47-.25h1.74c.05,1.37.08,2.59.08,3.88l.03,9.75c0,2.66-.21,5.36-.35,8.01,1.26-.14,1.79-.21,2.37-.21.42,0,1.55.1,2.57.21-.11-.98-.25-2.14-.25-4.79v-12.94"/>
    <path d="M89.37,321.8c.63-.04,1.61-.21,2.6-.21s2.2.17,2.72.21c-1.57-3.39-3.88-8.67-5.21-11.72-1.26-2.94-3.36-7.83-5.03-12.62-.38.11-.74.18-1.13.18-.42,0-.76-.07-1.16-.18-.83,2.87-2.86,7.41-6.39,15.32l-4.06,9.02c.49-.07.98-.21,1.57-.21s1.23.14,1.68.21c.57-2,1.68-4.9,2.8-7.59,1.39-.07,2.8-.14,4.2-.14,1.5,0,2.97.07,4.48.14l1.47,3.71,1.46,3.88h0ZM85.43,312.04c-1.08.07-2.13.14-3.22.14-1.23,0-2.41-.1-3.64-.14l3.56-8.6,3.29,8.6" fill-rule="evenodd"/>
    <path d="M103.04,299.7c.53-.03,1.82-.17,2.49-.17,1.15,0,2.31.17,3.25.87,1.23.9,1.47,2.16,1.47,3.64,0,2.27-1.29,4.82-4.8,4.82-.91,0-1.75-.07-2.41-.1v-9.06h0ZM108.77,309.91c3.19-.59,6.08-2.59,6.08-6.47,0-1.47-.55-2.9-1.6-3.92-1.5-1.44-3.22-1.71-5.48-1.71-.82,0-4.86.17-5.78.17-1.78,0-2.69-.11-3.49-.17.25,4.51.25,5,.25,9.58,0,6.74-.03,7.51-.31,14.4.76-.11,1.6-.21,2.41-.21.87,0,1.65.14,2.34.21,0-.91-.14-5.42-.14-6.43v-4.97h.84c1.89,2.66,4.06,5.74,5.84,8.49.52.81,1.29,2.11,1.81,2.91,1.05-.14,1.47-.21,2.83-.21,1.26,0,2.13.1,3.11.21-2.21-2.77-3.15-3.99-5.91-7.87-.52-.73-1.29-1.89-1.81-2.62l-.99-1.4" fill-rule="evenodd"/>
    <path d="M99.46,245.32c1.69,0,3.09-.1,4.59-.3.9-.9,2.19-2.49,2.19-4.88,0-3.09-2.19-4.39-5.18-4.39h-1.6v9.57ZM94.37,256.38v-22.73h7.18c6.48,0,9.77,2.69,9.77,6.38,0,2.99-1.99,4.69-4.19,5.98l6.08,10.37h-5.58l-5.38-9.17c-.9.1-1.79.2-2.79.2v8.97h-5.08ZM75.59,249.6h7.97l-3.99-10.67c-1.4,3.59-2.69,7.08-3.99,10.67M70.21,256.38c3.29-7.28,6.18-14.35,9.57-22.73h3.09l8.57,22.73h-5.38l-1.79-4.78h-9.37l-1.59,4.78h-3.09ZM52.54,236.94l1-3.29h18.94l-1,3.29c-2.29-.9-4.59-1.69-6.38-1.79v21.23h-5.18v-21.23c-1.89.1-5.08.9-7.38,1.79M38.25,249.6h7.97l-3.89-10.47c-1.4,3.49-2.79,6.98-4.09,10.47M32.62,256.38c3.29-7.28,6.28-14.45,9.57-22.73h3.09l8.57,22.73h-5.38l-1.79-4.78h-9.37l-1.59,4.78h-3.09ZM13.65,244.42c0,7.48,2.89,10.17,7.28,10.17.7,0,1.5,0,2.29-.2,1-1.89,1.69-4.49,1.69-8.67,0-7.68-2.89-10.27-7.18-10.27-.7,0-1.4.1-2.09.3-1.2,1.69-1.99,4.19-1.99,8.67M8.37,245.52c0-7.97,5.88-12.16,11.16-12.16,4.59,0,10.67,2.89,10.67,11.06,0,4.98-2.49,9.47-6.68,11.36,2.79,1.4,6.08,2.99,7.38,3.29.7.2,1.99.5,3.29.5.3,0,.5,0,1.3-.1l.2.4c-.8.7-3.59,2.39-5.58,2.39-1.3,0-2.79-.4-4.29-1.5l-5.68-4.19c-.7.1-.8.1-1.2.1-4.88,0-10.57-2.99-10.57-11.16"/>
    <path d="M107.45,230.06c2.11,0,3.51-.58,4.23-.85l-.45-1.53c-.81.31-1.62.45-2.47.45-1.71,0-2.47-.67-2.47-2.52v-16.24l-3.69.49v14.93c0,3.87,1.84,5.26,4.86,5.26"/>
    <polygon points="89.81 229.75 93.5 229.75 93.5 213.15 89.81 213.6 89.81 229.75"/>
    <path d="M76.35,230.13c4.59,0,6.57-1.93,6.57-4.77,0-1.89-1.66-3.55-3.78-4.9-1.89-1.21-4.77-3.06-4.77-4.41,0-.13,0-.27.09-.4.67-.45.99-.4,1.89-.4,2.83,0,4.95,1.89,6.12,3.64l.54-3.91c-1.57-1.21-3.55-1.75-5.35-1.75-3.91,0-6.12,1.89-6.12,4.36s2.25,3.82,4.18,5.13c1.93,1.3,4.41,2.88,4.41,4.45v.27c-.63.45-1.44.67-1.98.67-3.1,0-5.58-1.89-6.66-3.37l-.54,3.91c1.71,1.08,3.91,1.48,5.4,1.48"/>
    <polygon points="60.54 229.68 64.23 229.68 64.23 213.08 60.54 213.53 60.54 229.68"/>
    <path d="M46.15,229.75h2.34c1.93-5.4,3.96-10.89,6.12-16.28h-2.7c-1.17,4.23-2.43,8.37-3.73,12.28-1.35-3.91-2.61-8.05-3.78-12.28h-4.27c2.11,5.4,4.18,10.89,6.03,16.28"/>
    <polygon points="91.05 211.13 94.25 208.74 92.04 205.64 88.85 208.02 91.05 211.13"/>
    <polygon points="62.61 211.06 65.8 208.68 63.6 205.57 60.4 207.96 62.61 211.06"/>
    <path d="M105.51,215.78c3.82.09,7.29-.27,7.29-2.61,0-.54-.09-.72-.23-1.03h-.18c-2.02,1.57-8.19,1.39-12.28,1.39-.54,0-1.03,0-1.57-.05l-.04.13c1.66.99,3.91,2.07,7.02,2.16"/>
    <path d="M77.6,421.17h-14.47c-.66,0-1.19.53-1.19,1.19v8.36c0,.66.53,1.19,1.19,1.19h14.47c.66,0,1.19-.53,1.19-1.19v-8.36c0-.66-.53-1.19-1.19-1.19ZM75.59,429.66s-.02.05-.05.05h-10.34s-.06-.02-.06-.05v-6.22s.02-.05.06-.05h10.34s.05.02.05.05v6.22Z"/>
    <path d="M58.98,421.17h-16.43c-.06,0-.11.05-.11.11v1.99c0,.06.05.11.11.11h6.56s.05.02.05.05v8.38c0,.06.05.11.11.11h2.99c.06,0,.11-.05.11-.11v-8.38s.02-.05.05-.05h6.56c.06,0,.11-.05.11-.11v-1.99c0-.06-.05-.11-.11-.11Z"/>
    <path d="M97.82,421.17h-2.99c-.06,0-.11.05-.11.11v8.37s-.02.05-.05.05h-9.76s-.05-.02-.05-.05v-8.37c0-.06-.05-.11-.11-.11h-2.99c-.06,0-.11.05-.11.11v9.44c0,.66.53,1.19,1.19,1.19h13.89c.66,0,1.19-.53,1.19-1.19v-9.44c0-.06-.05-.11-.11-.11Z"/>
    <path d="M111.34,427.54h4.75c.66,0,1.19-.53,1.19-1.19v-3.98c0-.66-.53-1.19-1.19-1.19h-15.19c-.06,0-.11.05-.11.11v10.53c0,.06.05.11.11.11h2.99c.06,0,.11-.05.11-.11v-6.08l8.97,6.14s.1.05.15.05h4.26c.11,0,.15-.14.06-.2l-6.1-4.18ZM103.99,425.28v-1.84s.02-.05.06-.05h9.97s.06.02.06.05v1.84s-.03.05-.06.05h-9.97s-.06-.02-.06-.05Z"/>
    <path d="M39.47,421.17h-14.96c-.66,0-1.19.53-1.19,1.19v8.36c0,.66.53,1.19,1.19,1.19h14.96c.06,0,.11-.05.11-.11v-1.99c0-.06-.05-.11-.11-.11h-12.9s-.05-.02-.05-.05v-1.95s.02-.05.05-.05h12.07c.06,0,.11-.05.11-.11v-1.99c0-.06-.05-.11-.11-.11h-12.07s-.05-.03-.05-.05v-1.95s.02-.05.05-.05h12.9c.06,0,.11-.05.11-.11v-1.99c0-.06-.05-.11-.11-.11Z"/>
    <path d="M4.21,429.71c-.06,0-.11.05-.11.11v1.99c0,.06.05.11.11.11h15.06c.66,0,1.19-.53,1.19-1.19v-9.44c0-.06-.05-.11-.11-.11h-2.99c-.06,0-.11.05-.11.11v8.37s-.02.05-.05.05c-4.33,0-8.66,0-12.99,0Z"/>
    <polygon points="60.79 387.64 42.91 392.43 42.91 386.46 60.79 381.67 60.79 387.64"/>
    <path d="M60.79,391.11v11.27c0,2.45-1.65,4.6-4.02,5.23l-16.84,4.51v-5.96l2.98-.8,14.09-3.78c1.07-.29,1.81-1.25,1.81-2.36v-1.63l-15.9,4.26v-5.96l17.88-4.79Z"/>
    <polygon points="69.73 404.14 69.73 394.68 63.77 396.27 63.77 390.31 81.65 385.52 81.65 391.48 75.7 393.08 75.7 402.54 69.73 404.14"/>
    <polygon points="63.77 386.84 63.77 380.87 81.65 376.08 81.65 382.05 63.77 386.84"/>
    <path d="M0,455.14h5.31v1.75h-3.05v1.67h2.43v1.66h-2.43v2.78H0v-7.87Z"/>
    <path d="M6.41,455.14h2.28v7.87h-2.28v-7.87Z"/>
    <path d="M10.24,455.14h5.31v1.75h-3.05v1.67h2.43v1.66h-2.43v2.78h-2.27v-7.87Z"/>
    <path d="M17.91,455.14h2.92l2.5,7.87h-2.39l-.42-1.46h-2.61l-.42,1.46h-2.1l2.52-7.87ZM18.35,459.99h1.73l-.86-3.03-.87,3.03Z"/>
    <path d="M28.29,455.14h2.92l2.5,7.87h-2.39l-.42-1.46h-2.61l-.42,1.46h-2.1l2.52-7.87ZM28.73,459.99h1.73l-.86-3.03-.87,3.03Z"/>
    <path d="M34.61,455.14h3.08c2.06,0,3.2.84,3.2,2.5v.04c0,1.12-.59,1.75-1.42,2.07l1.88,3.26h-2.38l-1.6-2.82h-.53v2.82h-2.24v-7.87ZM37.58,458.73c.76,0,1.13-.32,1.13-.96v-.04c0-.64-.4-.89-1.12-.89h-.74v1.89h.73Z"/>
    <path d="M44.18,455.14h2.92l2.5,7.87h-2.39l-.42-1.46h-2.61l-.42,1.46h-2.1l2.52-7.87ZM44.62,459.99h1.73l-.86-3.03-.87,3.03Z"/>
    <path d="M50.49,455.14h3.51c1.86,0,2.65.84,2.65,2.06v.04c0,.88-.45,1.46-1.33,1.69.97.17,1.57.75,1.57,1.84v.04c0,1.41-.91,2.19-2.86,2.19h-3.54v-7.87ZM53.55,458.27c.7,0,.97-.24.97-.8v-.04c0-.54-.29-.78-.97-.78h-.86v1.63h.86ZM53.62,461.5c.72,0,1.05-.33,1.05-.91v-.04c0-.59-.32-.9-1.11-.9h-.87v1.86h.94Z"/>
    <path d="M59.72,459.12v-.09c0-2.42,1.72-4.02,4.02-4.02,2.05,0,3.47.95,3.65,3.03h-2.32c-.09-.8-.53-1.24-1.32-1.24-1.01,0-1.65.79-1.65,2.22v.09c0,1.42.61,2.22,1.68,2.22.79,0,1.35-.42,1.46-1.29h2.24c-.15,2.04-1.63,3.09-3.66,3.09-2.75,0-4.1-1.61-4.1-4.02Z"/>
    <path d="M68.42,459.82v-4.68h2.26v4.58c0,1.11.28,1.65,1.23,1.65s1.23-.51,1.23-1.68v-4.54h2.28v4.64c0,2.29-1.34,3.36-3.51,3.36s-3.49-1.12-3.49-3.32Z"/>
    <path d="M76.88,455.14h2.99c2.16,0,3.16.96,3.16,2.63v.04c0,1.65-1.11,2.54-3.06,2.54h-.85v2.65h-2.24v-7.87ZM79.77,458.82c.73,0,1.11-.34,1.11-.99v-.04c0-.67-.4-.95-1.1-.95h-.66v1.98h.65Z"/>
    <path d="M85.55,462.69l2.75-2.92c.78-.84,1.3-1.51,1.3-2.17,0-.53-.28-.88-.84-.88s-.91.34-1.01,1.28h-2.05c.08-1.97,1.27-2.97,3.17-2.97s2.95,1.03,2.95,2.49c0,1.08-.61,1.89-1.49,2.74l-1.1,1.07h2.64v1.68h-6.33v-.32Z"/>
    <path d="M92.56,459.24v-.33c0-2.49,1.55-3.88,3.63-3.88s3.63,1.29,3.63,3.84v.31c0,2.5-1.43,3.96-3.67,3.96s-3.59-1.42-3.59-3.89ZM97.57,459.22v-.32c0-1.44-.42-2.17-1.38-2.17s-1.38.72-1.38,2.17v.33c0,1.46.43,2.16,1.4,2.16s1.35-.72,1.35-2.17Z"/>
    <path d="M100.31,462.69l2.75-2.92c.78-.84,1.3-1.51,1.3-2.17,0-.53-.28-.88-.84-.88s-.91.34-1.01,1.28h-2.05c.08-1.97,1.27-2.97,3.17-2.97s2.95,1.03,2.95,2.49c0,1.08-.61,1.89-1.49,2.74l-1.1,1.07h2.64v1.68h-6.33v-.32Z"/>
    <path d="M107.27,460.53h2.05c.08.55.3.91,1.02.91.65,0,.95-.48.95-1.11,0-.7-.39-1.12-1.07-1.12-.64,0-1.03.25-1.3.56h-1.34l.17-4.63h5.3v1.65h-3.67l-.04,1.74c.3-.43.86-.84,1.84-.84,1.44,0,2.39.97,2.39,2.67s-1.2,2.77-3.19,2.77c-2.09,0-3.04-1.13-3.09-2.61Z"/>
    <path d="M114.9,456.06h-.91v-.92h3v.92h-.91v2.61h-1.18v-2.61ZM117.42,455.14h1.41l.65,1.74.66-1.74h1.44v3.53h-1.2v-2.01l-.79,2.01h-.36l-.78-2.01v2.01h-1.02v-3.53Z"/>
    <path d="M23.8,473.71h2.15c.06.56.31,1.02,1.24,1.02.65,0,1.01-.32,1.01-.78s-.3-.62-1.24-.76c-2.22-.26-2.97-.92-2.97-2.51,0-1.42,1.17-2.45,3.05-2.45s2.96.79,3.1,2.45h-2.09c-.08-.56-.4-.85-1.01-.85s-.91.27-.91.67c0,.44.24.64,1.22.77,1.99.22,3.01.74,3.01,2.44,0,1.44-1.14,2.62-3.17,2.62-2.2,0-3.32-.92-3.39-2.63Z"/>
    <path d="M31.28,473.02v-4.68h2.26v4.58c0,1.11.28,1.65,1.23,1.65s1.23-.51,1.23-1.68v-4.54h2.28v4.64c0,2.29-1.34,3.36-3.51,3.36s-3.49-1.12-3.49-3.32Z"/>
    <path d="M39.74,468.34h2.99c2.16,0,3.16.96,3.16,2.63v.04c0,1.65-1.11,2.54-3.06,2.54h-.85v2.65h-2.24v-7.87ZM42.64,472.02c.73,0,1.11-.34,1.11-.99v-.04c0-.67-.4-.95-1.1-.95h-.66v1.98h.65Z"/>
    <path d="M46.91,468.34h2.99c2.16,0,3.16.96,3.16,2.63v.04c0,1.65-1.11,2.54-3.06,2.54h-.85v2.65h-2.24v-7.87ZM49.81,472.02c.73,0,1.11-.34,1.11-.99v-.04c0-.67-.4-.95-1.1-.95h-.66v1.98h.65Z"/>
    <path d="M53.75,472.32v-.09c0-2.4,1.8-4,4.16-4s4.17,1.51,4.17,3.95v.09c0,2.42-1.66,4.07-4.2,4.07s-4.13-1.65-4.13-4.02ZM59.72,472.3v-.09c0-1.4-.7-2.22-1.82-2.22s-1.8.8-1.8,2.23v.09c0,1.43.73,2.26,1.82,2.26s1.8-.86,1.8-2.27Z"/>
    <path d="M63.17,468.34h3.08c2.06,0,3.2.84,3.2,2.5v.04c0,1.12-.59,1.75-1.42,2.07l1.88,3.26h-2.38l-1.6-2.82h-.53v2.82h-2.24v-7.87ZM66.14,471.93c.76,0,1.13-.32,1.13-.96v-.04c0-.64-.4-.89-1.12-.89h-.74v1.89h.73Z"/>
    <path d="M72.15,470.08h-2.04v-1.74h6.34v1.74h-2.04v6.13h-2.27v-6.13Z"/>
    <path d="M77.44,468.34h5.43v1.74h-3.19v1.35h2.54v1.61h-2.54v1.43h3.37v1.74h-5.61v-7.87Z"/>
    <path d="M84.17,468.34h3.08c2.06,0,3.2.84,3.2,2.5v.04c0,1.12-.59,1.75-1.42,2.07l1.88,3.26h-2.38l-1.6-2.82h-.53v2.82h-2.24v-7.87ZM87.14,471.93c.76,0,1.13-.32,1.13-.96v-.04c0-.64-.4-.89-1.12-.89h-.74v1.89h.73Z"/>
    <path d="M91.22,473.71h2.15c.06.56.31,1.02,1.24,1.02.65,0,1.01-.32,1.01-.78s-.3-.62-1.24-.76c-2.22-.26-2.97-.92-2.97-2.51,0-1.42,1.17-2.45,3.05-2.45s2.96.79,3.1,2.45h-2.09c-.08-.56-.4-.85-1.01-.85s-.91.27-.91.67c0,.44.24.64,1.22.77,1.99.22,3.01.74,3.01,2.44,0,1.44-1.14,2.62-3.17,2.62-2.2,0-3.32-.92-3.39-2.63Z"/>
    <path d="M33.44,500.64l5.7,3.29.58.34c.4.23.91.09,1.13-.3s.09-.91-.3-1.13l-.58-.34-5.64-3.25-.56-.32c-.4-.23-.91-.09-1.13.3s-.09.91.3,1.13l.5.29Z"/>
    <path d="M21.68,521.01l5.7,3.29.58.34c.4.23.91.09,1.13-.3s.09-.91-.3-1.13l-.58-.34-5.64-3.25-.56-.32c-.4-.23-.91-.09-1.13.3s-.09.91.3,1.13l.5.29Z"/>
    <path d="M22.51,503.97l5.7-3.29.58-.34c.4-.23.53-.74.3-1.13s-.74-.53-1.13-.3l-.58.34-5.64,3.25-.56.32c-.4.23-.53.74-.3,1.13.23.4.74.53,1.13.3l.5-.29Z"/>
    <path d="M34.27,524.35l5.7-3.29.58-.34c.4-.23.53-.74.3-1.13s-.74-.53-1.13-.3l-.58.34-5.64,3.25-.56.32c-.4.23-.53.74-.3,1.13s.74.53,1.13.3l.5-.29Z"/>
    <path d="M19.93,515.11v-6.58s0-.67,0-.67c0-.46-.37-.83-.83-.83s-.83.37-.83.83v.67s0,6.51,0,6.51v.65c0,.46.37.83.83.83.46,0,.83-.37.83-.83v-.58Z"/>
    <path d="M43.46,515.11v-6.58s0-.67,0-.67c0-.46-.37-.83-.83-.83s-.83.37-.83.83v.67s0,6.51,0,6.51v.65c0,.46.37.83.83.83s.83-.37.83-.83v-.58Z"/>
    <path d="M21.68,507.43l5.7,3.29.58.34c.4.23.91.09,1.13-.3s.09-.91-.3-1.13l-.58-.34-5.64-3.25-.46-.27c-.4-.23-.91-.09-1.13.3s-.09.91.3,1.13l.4.23Z"/>
    <path d="M22.51,517.56l5.7-3.29.58-.34c.4-.23.53-.74.3-1.13s-.74-.53-1.13-.3l-.58.34-5.64,3.25-.46.27c-.4.23-.53.74-.3,1.13s.74.53,1.13.3l.4-.23Z"/>
    <path d="M30.03,515.11v7.25c0,.46.37.83.83.83s.83-.37.83-.83v-7.72c0-.46-.37-.83-.83-.83s-.83.37-.83.83v.47Z"/>
    <path d="M33.34,514.16l5.7,3.29.58.34c.4.23.91.09,1.13-.3s.09-.91-.3-1.13l-.58-.34-5.64-3.25-.46-.27c-.4-.23-.91-.09-1.13.3s-.09.91.3,1.13l.4.23Z"/>
    <path d="M34.17,510.82l5.7-3.29.58-.34c.4-.23.53-.74.3-1.13s-.74-.53-1.13-.3l-.58.34-5.64,3.25-.46.27c-.4.23-.53.74-.3,1.13s.74.53,1.13.3l.4-.23Z"/>
    <path d="M30.03,501.18c0-.46.37-.83.83-.83s.83.37.83.83v7.72c0,.46-.37.83-.83.83s-.83-.37-.83-.83v-7.72Z"/>
    <path d="M76.97,519.17c.24,0,.41-.18.41-.41,0-.2-.17-.39-.41-.39-.22,0-.39.18-.39.39,0,.22.17.41.39.41"/>
    <path d="M75.88,519.17c.24,0,.42-.18.42-.41,0-.2-.18-.39-.42-.39-.2,0-.39.18-.39.39,0,.22.18.41.39.41"/>
    <path d="M76.68,519.93c-.79,0-1.33.57-1.33,1.35,0,.28.06.5.17.7h-1.86v-.48c0-.87-.5-1.36-1.38-1.36h-1.93v-1.33h-.66v3.17h-4.15v-1.82h-.66v2.54c0,.39-.26.66-.64.66v.66c.77.02,1.31-.52,1.31-1.33v-.09h11.15c.77,0,1.31-.53,1.31-1.33s-.53-1.35-1.31-1.35M72.97,521.97h-2.64v-1.16h2.01c.39,0,.63.18.63.55v.61ZM76.68,521.94c-.41,0-.68-.28-.68-.66s.28-.68.68-.68.64.29.64.68-.26.66-.64.66"/>
    <path d="M59.28,521.81c-.14-.14-.2-.32-.2-.54s.05-.4.2-.54c.14-.14.32-.2.52-.2.22,0,.4.05.54.2.14.14.22.32.22.54s-.07.4-.22.54c-.14.14-.32.22-.54.22-.2,0-.38-.07-.52-.22M60.56,520.26c-.22-.27-.51-.4-.88-.4-.34,0-.65.14-.92.41-.23.27-.38.6-.38.99s.14.74.38,1.01c.27.27.58.4.92.4.38,0,.67-.13.88-.38v.31h.68v-2.67h-.68v.32ZM56.94,520.49v1.33c0,.56.29.85.85.85.16,0,.31-.02.45-.07l-.05-.56c-.07.02-.14.04-.23.04-.22,0-.32-.13-.32-.38v-1.21h.58v-.54h-.58v-.7h-.69v.7h-.4v.54h.4ZM54.33,521.81c-.14-.14-.2-.32-.2-.54s.05-.4.2-.54c.14-.14.32-.2.52-.2.22,0,.4.05.54.2.14.14.22.32.22.54s-.07.4-.22.54c-.14.14-.32.22-.54.22-.2,0-.38-.07-.52-.22M55.61,520.26c-.22-.27-.5-.4-.88-.4-.34,0-.65.14-.92.41-.23.27-.38.6-.38.99s.14.74.38,1.01c.27.27.58.4.92.4.38,0,.67-.13.88-.38v.31h.69v-2.67h-.69v.32ZM63.21,519.91c-.36,0-.68.16-.81.5v-.49h-.69v2.67h.69v-1.26c0-.25.09-.43.25-.54.13-.09.27-.13.43-.13h.13v-.76ZM51.17,518.81c-.52,0-.97.18-1.35.56-.38.38-.56.83-.56,1.37s.18.99.56,1.37c.38.36.83.54,1.35.54.34,0,.65-.07.94-.23l.4.41.52-.45-.38-.4c.31-.36.45-.78.45-1.24,0-.54-.18-.99-.56-1.37-.38-.38-.83-.56-1.37-.56M51.17,521.95c-.32,0-.61-.13-.85-.34-.22-.23-.34-.52-.34-.87,0-.36.13-.65.34-.88.23-.22.52-.34.85-.34.34,0,.63.13.87.34.22.23.34.52.34.88,0,.27-.07.51-.23.72l-.65-.69-.5.47.6.63c-.13.05-.27.07-.41.07"/>
    <path d="M49.26,515.68v-5.3h1.05l1.69,4.21,1.69-4.21h1.05v5.3h-.97v-3.24l-.26.81-1.04,2.43h-.95l-1.04-2.43c-.14-.45-.23-.72-.26-.81v3.24h-.97ZM58.94,513.7c0-.55-.17-1-.51-1.35-.34-.35-.78-.53-1.32-.53s-1.03.18-1.4.55c-.38.37-.57.85-.57,1.43s.19,1.06.56,1.43c.37.37.83.55,1.37.55.82,0,1.41-.36,1.77-1.09l-.72-.41c-.23.46-.58.69-1.04.69-.28,0-.52-.09-.7-.26-.19-.17-.3-.4-.33-.68h2.89v-.33ZM57.74,512.76c.17.14.28.33.33.58h-2.01c.07-.23.2-.42.38-.57.18-.15.4-.23.65-.23.27,0,.49.07.66.21ZM62.3,510.38v2.01c-.24-.38-.63-.57-1.18-.57-.49,0-.92.18-1.29.54-.37.36-.55.84-.55,1.44s.18,1.09.53,1.45c.35.36.79.54,1.32.54.27,0,.51-.06.71-.18.2-.12.36-.27.47-.46v.53h.95v-5.3h-.95ZM60.24,513.81c0-.32.1-.58.3-.78.2-.2.45-.31.76-.31s.56.1.76.31c.2.2.3.46.3.78s-.1.58-.3.78c-.2.21-.46.31-.76.31s-.56-.1-.76-.31-.3-.47-.3-.78ZM74.2,514.86c-.48,0-.89-.17-1.22-.51-.33-.34-.49-.78-.49-1.31s.17-1,.5-1.33c.33-.34.73-.5,1.21-.5.7,0,1.21.35,1.55,1.04l.81-.58c-.18-.41-.48-.75-.89-1-.41-.25-.89-.38-1.43-.38-.79,0-1.44.26-1.97.77-.52.51-.78,1.18-.78,1.99s.26,1.48.77,1.99c.51.51,1.16.76,1.95.76.55,0,1-.11,1.36-.33.35-.22.7-.58,1.03-1.09l-.78-.56c-.37.7-.91,1.06-1.6,1.06ZM77.41,512.7v2.98h.95v-3.76h-1.54v.78h.59ZM77.86,511.5h.05c.34,0,.62-.28.62-.62h0c0-.34-.28-.62-.62-.62h-.05c-.34,0-.62.28-.62.62h0c0,.34.28.62.62.62ZM79.33,512.7v1.89c0,.79.4,1.19,1.21,1.19.23,0,.44-.03.64-.1l-.09-.78c-.1.03-.2.04-.32.04-.32,0-.48-.18-.48-.53v-1.71h.82v-.78h-.82v-1.01h-.95v1.01h-.58v.78h.58ZM82.37,517.28c.3,0,.54-.07.74-.21.2-.14.37-.38.5-.7l1.79-4.44h-1.08l-.92,2.44-.97-2.44h-1.09l1.55,3.79-.12.33c-.08.24-.23.35-.43.35-.12,0-.23-.03-.34-.09l-.15.89c.14.05.31.08.52.08ZM68.76,512.35c-.3-.37-.7-.55-1.23-.55s-.94.2-1.3.58c-.36.39-.54.86-.54,1.42s.18,1.04.54,1.42c.36.39.8.58,1.3.58s.94-.18,1.23-.55v.45h.98v-3.79h-.98v.45ZM66.96,514.57c-.2-.2-.3-.46-.3-.77s.1-.57.3-.76c.2-.2.45-.3.75-.3s.55.1.75.3c.2.2.3.45.3.76s-.1.57-.3.77-.45.3-.75.3-.55-.1-.75-.3ZM63.61,512.7v-.78h1.54v3.76h-.95v-2.98h-.59ZM64.03,510.88h0c0-.34.28-.62.62-.62h.05c.34,0,.62.28.62.62h0c0,.34-.28.62-.62.62h-.05c-.34,0-.62-.28-.62-.62Z"/>
    <path d="M83.82,501.19c0-.29.24-.53.54-.53.33,0,.57.24.57.53,0,.32-.24.56-.57.56-.3,0-.54-.24-.54-.56M86.68,502.46c.33,0,.57-.24.57-.56,0-.29-.24-.53-.57-.53-.3,0-.54.24-.54.53,0,.32.24.56.54.56M72.56,508.63h1.69v-.49h-.65c-.21,0-.34-.12-.34-.33,0-.2.13-.34.32-.34.09,0,.22.02.31.14l.27-.38c-.15-.17-.37-.24-.59-.24-.46,0-.79.32-.79.78,0,.15.04.27.11.37h-.33v.49ZM89.16,507.27c-.3,0-.54.24-.54.53,0,.32.24.56.54.56.33,0,.57-.24.57-.56,0-.29-.24-.53-.57-.53M87.16,506.56h-2.28c-.44,0-.71-.1-.86-.35-.25.3-.63.46-1.1.46-.98,0-1.81-.72-1.81-1.86s.83-1.88,1.84-1.88c.43,0,.72.12.93.33v-.74h.96v2.58c0,.43.1.57.5.57h.86v-2.54h.96v2.54h1.48v-2.54h.96v3.43h-2.44ZM83.88,504.79c0-.54-.39-.93-.9-.93-.57,0-.95.39-.95.95s.37.93.95.93c.52,0,.9-.37.9-.95M87.65,507.27c-.3,0-.54.24-.54.53,0,.32.24.56.54.56.33,0,.57-.24.57-.56,0-.29-.24-.53-.57-.53M75.82,506.56h.16v-5.32h-.96v4.43h-1.21l-.28-3.25h-1.55v.79h.66l.22,2.46h-1.55v.89h4.5ZM69.27,503.79c.23,0,.5.06.73.33l.62-.72c-.37-.4-.86-.54-1.36-.54-1.06,0-1.82.8-1.82,1.88,0,.36.11.68.27.93h-1.62v-4.43h-.96v4.43h-1.21l-.28-3.25h-1.55v.79h.66l.22,2.46h-1.55v.89h9.13v-.89h-1.23c-.57,0-.98-.34-.98-.93s.42-.95.92-.95M82.86,501.75c.33,0,.57-.24.57-.56,0-.29-.24-.53-.57-.53-.3,0-.54.24-.54.53,0,.32.24.56.54.56M78.34,501.24h-.96v5.32h.96v-5.32ZM102.35,506.56h.96v-5.32h-.96v5.32ZM99.96,501.24h.96v5.32h-10.07v-.89h2.29v-.4c0-.99-.36-1.49-1.16-1.49-.32,0-.52.09-.66.16l-.36-.83c.27-.16.66-.26,1.08-.26,1.61,0,2.12,1.23,2.12,2.41v.42h1.41c-.15-.27-.24-.6-.24-.96,0-1.1.76-1.89,1.85-1.89s1.84.79,1.84,1.89c0,.36-.08.69-.23.96h1.17v-4.43ZM96.26,504.69c0,.54.39.93.93.93s.92-.39.92-.93-.37-.95-.92-.95-.93.4-.93.95M52.51,501.75c.33,0,.57-.24.57-.56,0-.29-.24-.53-.57-.53-.3,0-.54.24-.54.53,0,.32.24.56.54.56M56.6,507.8c0-.29-.24-.53-.57-.53-.3,0-.54.24-.54.53,0,.32.24.56.54.56.33,0,.57-.24.57-.56M49.26,504.81c0-1.13.83-1.88,1.84-1.88.43,0,.72.12.93.33v-.74h.96v2.58c0,.43.1.57.5.57h1.18v-2.54h.96v2.54h1.77c-.15-.27-.24-.6-.24-.96,0-1.1.76-1.89,1.85-1.89s1.84.79,1.84,1.89-.75,1.85-1.84,1.85h-5.99c-.44,0-.71-.1-.86-.35-.25.3-.63.46-1.1.46-.97,0-1.81-.72-1.81-1.86M58.09,504.69c0,.54.39.93.93.93s.92-.39.92-.93-.37-.95-.92-.95-.93.4-.93.95M50.18,504.81c0,.56.37.93.95.93.52,0,.9-.37.9-.95s-.39-.93-.9-.93c-.57,0-.95.39-.95.95M53.97,507.8c0,.32.24.56.54.56.33,0,.57-.24.57-.56,0-.29-.24-.53-.57-.53-.3,0-.54.24-.54.53M51.01,501.75c.33,0,.57-.24.57-.56,0-.29-.24-.53-.57-.53-.3,0-.54.24-.54.53,0,.32.24.56.54.56"/>
    <path d="M33.25,566.07c-1.91.4-3.42,2.17-3.42,4.19,0,.07,0,.14.01.17,3.19.78,4.64,2.7,4.65,5.37,0,2.67-2.1,5.59-5.65,5.6-2.88,0-5.88-2.45-5.89-6.4,0-2.61,1.4-5.12,3.2-6.62,1.76-1.45,4.16-2.39,6.34-2.39.28,0,.57.02.75.08-1.36-.64-2.88-1.01-4.48-1.01-5.79,0-10.49,4.69-10.49,10.49s4.69,10.49,10.49,10.49,10.49-4.69,10.49-10.49c0-4.18-2.45-7.79-6-9.48Z"/>
    <path d="M46.01,579.89l-3.21-7.65h2.1l2,5.08,1.94-5.08h2l-3.11,7.65h-1.71Z"/>
    <path d="M58.35,576.04c0,.5-.08.99-.23,1.47-.15.48-.38.91-.68,1.29-.3.38-.68.69-1.14.92-.46.23-1,.35-1.61.35s-1.15-.12-1.61-.35-.84-.54-1.14-.92c-.3-.38-.53-.81-.68-1.29-.15-.48-.23-.97-.23-1.47s.08-.98.23-1.46c.15-.48.38-.9.68-1.28.3-.38.68-.68,1.14-.9.46-.23,1-.34,1.61-.34s1.15.11,1.6.34c.45.23.84.53,1.14.9.31.38.54.8.69,1.28.15.48.23.96.23,1.46ZM56.42,576.03c0-.32-.04-.62-.11-.91-.07-.29-.19-.53-.33-.74-.15-.21-.33-.37-.54-.49s-.46-.18-.75-.18-.53.06-.75.18-.39.29-.54.49c-.15.21-.26.45-.33.74-.07.29-.11.59-.11.91s.04.63.11.92c.07.28.18.53.33.74s.32.38.54.5c.22.12.47.18.75.18s.53-.06.75-.18.39-.29.54-.5c.15-.21.26-.46.33-.74.07-.28.11-.59.11-.92Z"/>
    <path d="M64.43,579.89l-.08-.59c-.18.2-.42.38-.71.53-.3.15-.64.23-1.04.23-.53,0-.99-.11-1.39-.33-.4-.22-.74-.52-1.01-.89-.27-.37-.48-.8-.62-1.29-.14-.49-.21-.99-.21-1.52,0-.5.07-.98.22-1.46s.37-.9.67-1.28c.3-.38.68-.68,1.13-.9.45-.23.99-.34,1.6-.34.4,0,.83.07,1.3.22v-2.97h1.97v10.59h-1.81ZM64.27,573.93c-.38-.15-.73-.22-1.06-.22s-.63.06-.87.19c-.24.13-.44.3-.6.52s-.28.46-.36.73c-.08.27-.12.55-.12.84,0,.32.03.62.1.92s.17.55.32.76c.14.22.32.39.54.53s.47.2.77.2c.24,0,.49-.07.74-.2s.43-.29.54-.47v-3.79Z"/>
    <path d="M71.93,579.89l-.08-.57c-.21.23-.48.42-.81.55-.33.13-.69.2-1.08.2-.33,0-.65-.06-.95-.17-.3-.11-.57-.27-.8-.48-.23-.21-.42-.46-.57-.76-.14-.3-.21-.64-.21-1.02s.07-.72.22-1.01c.15-.29.35-.54.61-.74.25-.2.55-.37.88-.49s.67-.22,1.04-.29c.25-.05.53-.09.84-.12.3-.03.55-.05.76-.07v-.11c0-.42-.11-.72-.33-.9-.22-.18-.52-.27-.9-.27-.22,0-.44.03-.64.08-.2.05-.38.12-.54.2-.16.08-.3.16-.42.24-.12.08-.22.15-.3.21l-.65-1.38c.08-.07.21-.16.39-.27.17-.11.39-.21.63-.31.25-.1.53-.18.84-.25.31-.07.65-.1,1.01-.1.42,0,.81.06,1.16.17.35.11.65.29.9.52.25.24.45.54.6.9.14.36.21.81.21,1.32v4.92h-1.79ZM71.78,576.31c-.21.01-.43.03-.66.06s-.44.06-.64.1c-.43.08-.72.23-.89.44-.17.21-.25.43-.25.67s.09.46.28.61.45.23.79.23c.26,0,.5-.05.74-.16.24-.11.44-.24.62-.4v-1.56Z"/>
    <path d="M79.81,571.05c-.06-.03-.19-.08-.37-.13-.19-.06-.43-.09-.74-.09-.28,0-.51.08-.69.25-.19.16-.28.43-.28.8v.37h1.65v1.59h-1.63v6.06h-1.97v-6.06h-1.02v-1.59h1.02v-.41c0-.5.06-.92.19-1.26.13-.34.3-.62.53-.84.23-.22.49-.38.8-.48.31-.1.64-.15,1-.15.48,0,.87.05,1.18.13.31.09.49.15.55.18l-.22,1.63Z"/>
    <path d="M87.11,576.04c0,.5-.08.99-.23,1.47-.15.48-.38.91-.68,1.29-.3.38-.68.69-1.14.92-.46.23-1,.35-1.61.35s-1.15-.12-1.61-.35-.84-.54-1.14-.92c-.3-.38-.53-.81-.68-1.29-.15-.48-.23-.97-.23-1.47s.08-.98.23-1.46c.15-.48.38-.9.68-1.28.3-.38.68-.68,1.14-.9.46-.23,1-.34,1.61-.34s1.15.11,1.6.34c.45.23.84.53,1.14.9.31.38.54.8.69,1.28.15.48.23.96.23,1.46ZM85.17,576.03c0-.32-.04-.62-.11-.91-.07-.29-.19-.53-.33-.74-.15-.21-.33-.37-.54-.49s-.46-.18-.75-.18-.53.06-.75.18-.39.29-.54.49c-.15.21-.26.45-.33.74-.07.29-.11.59-.11.91s.04.63.11.92c.07.28.18.53.33.74s.32.38.54.5c.22.12.47.18.75.18s.53-.06.75-.18.39-.29.54-.5c.15-.21.26-.46.33-.74.07-.28.11-.59.11-.92Z"/>
    <path d="M93.22,579.89v-4.37c0-.58-.12-1.03-.37-1.35-.24-.32-.58-.48-1.02-.48-.31,0-.59.08-.85.24-.26.16-.48.33-.67.52v5.43h-1.97v-7.65h1.79l.1.6c.31-.25.65-.45,1.04-.59.39-.14.78-.21,1.17-.21s.77.06,1.11.18c.34.12.63.31.87.58.24.26.43.61.56,1.03.13.42.2.93.2,1.52v4.52h-1.97Z"/>
    <path d="M98.34,576.56c.04.65.24,1.11.61,1.4.36.29.83.43,1.4.43.27,0,.52-.02.75-.07.23-.05.44-.11.62-.18.18-.07.33-.15.46-.22s.22-.14.29-.21l.52,1.6c-.07.05-.19.12-.36.21-.16.09-.37.17-.61.25-.24.08-.53.15-.86.21-.33.06-.69.09-1.08.09-.5,0-.97-.08-1.42-.24-.45-.16-.84-.4-1.18-.74-.34-.33-.61-.75-.81-1.25-.2-.5-.3-1.09-.3-1.78,0-.65.09-1.22.28-1.71.19-.5.44-.92.76-1.25.32-.34.7-.6,1.13-.78.43-.18.89-.27,1.37-.27s.94.08,1.35.24c.41.16.77.4,1.07.74.3.33.54.76.71,1.29.17.53.26,1.16.26,1.89v.35h-4.97ZM101.31,575.15c-.02-.26-.08-.49-.17-.69-.09-.2-.2-.35-.34-.48-.13-.12-.28-.21-.43-.27-.15-.06-.31-.09-.47-.09-.34,0-.66.13-.97.38-.31.25-.49.64-.54,1.14h2.92Z"/>
    <path d="M24.37,692.23h-1.85l-4.25,8.03h1.88l.87-1.7h4.85l.88,1.7h1.87l-4.25-8.03ZM21.86,696.99l1.6-3,1.57,3h-3.17ZM85.66,692.23h-1.85l-4.25,8.03h1.87l.88-1.7h4.85l.87,1.7h1.87l-4.25-8.03ZM83.15,696.99l1.6-3,1.58,3h-3.17ZM40.95,697.69c0,.88-.4,1.57-1.17,2.05-.75.46-1.82.69-3.19.69-1.98,0-3.55-.45-4.66-1.33l-.17-.13.94-1.24.17.1c1.15.7,2.4,1.06,3.73,1.06.85,0,1.51-.12,1.97-.34.39-.2.58-.45.58-.78,0-.24-.08-.58-.76-.75-.31-.08-1.17-.17-2.56-.26-1.29-.09-2.18-.26-2.72-.53-.67-.33-1-.9-1-1.68s.37-1.42,1.1-1.88c.7-.43,1.69-.65,2.95-.65,1.67,0,3.1.39,4.24,1.16l.21.14-1.05,1.16-.15-.07c-1.09-.55-2.22-.84-3.34-.84-.74,0-1.31.09-1.7.25-.49.22-.49.47-.49.56,0,.15.06.37.51.53.3.1.8.18,1.48.22,1.07.07,1.75.13,2.09.17.98.13,1.73.38,2.21.75.51.39.77.94.77,1.63M53.86,692.93c-.49-.47-1.16-.7-1.99-.7h-6.24v8.03h1.7v-2.9h4.31c.95,0,1.7-.22,2.2-.65.52-.44.79-1.08.79-1.9s-.25-1.41-.76-1.88M51.65,695.79h-4.33v-2h4.24c1.19,0,1.32.59,1.32,1.04s-.14.96-1.24.96M99.76,697.23c.49-.13.9-.36,1.21-.69.41-.43.62-1,.62-1.7,0-.79-.25-1.43-.75-1.9-.49-.47-1.18-.7-2.03-.7h-6.21v8.03h1.7v-2.9h3.52l4.52,4.99h.98l-3.55-5.12ZM94.29,693.8h4.21c1.22,0,1.36.59,1.36,1.04s-.14.96-1.24.96h-4.33v-2ZM65.9,698.69v1.57h-8.39v-8.03h8.1v1.57h-6.4v1.52h4.45v1.57h-4.45v1.81h6.7ZM78.62,693.8h-4.23v6.47h-1.57v-6.47h-4.24v-1.57h10.04v1.57Z"/>
    <path d="M80.83,707.11h.83v4.52h-42.22v-6.11h.83v5.45h13.78v-3.86h.83v3.86h3.16v-3.86h.83v3.86h3.38v-3.86h.83v3.86h11.87v-3.86h.83v3.86h2.11v-3.86h.83v3.86h2.13v-3.86ZM62.66,712.27c-.33,0-.57.22-.57.48s.24.48.57.48.58-.22.58-.48-.24-.48-.58-.48M59,712.27c-.26,0-.48.14-.55.34-.07-.19-.28-.34-.55-.34-.33,0-.57.22-.57.48s.24.48.57.48c.27,0,.48-.14.55-.33.07.19.28.33.55.33.33,0,.58-.22.58-.48s-.24-.48-.58-.48M53.97,706.33c.27,0,.48-.14.55-.33.07.19.28.33.55.33.33,0,.58-.22.58-.48s-.24-.49-.58-.49c-.27,0-.48.14-.55.34-.07-.19-.28-.34-.55-.34-.33,0-.57.22-.57.49s.24.48.57.48M37.74,711.31c0,.08,0,.29-.03.36l-1.69,2.51h.41l1.82-2.04c.21-.2.32-.44.32-.72v-4.32h-.83v4.2Z"/>
    <path d="M96.51,643.25h-.28v-.96h-1.26v.96h-.26v-.96h-1.25v.96h-4.22v-3.47h-1.27v3.47h-1.93s0,1.26,0,1.26h11.21c.16-.01.3-.08.39-.2l.03-.04c.04-.06.07-.13.08-.2l.02-1.78h-1.26v.96Z"/>
    <rect x="86.03" y="639.78" width="1.26" height="3.26"/>
    <path d="M99.08,644.99c-.07.16-.07.4-.02.54h-.19v.81h.83c.1,0,.17-.02.2-.04.03-.01.13-.07.18-.17v-.03s.02-.03.02-.03c.01-.06.02-.12.02-.2v-.34h-.34s0-.06,0-.08c0-.02,0-.05,0-.07h.34v-.71h-.56c-.24,0-.41.11-.5.31Z"/>
    <rect x="98.33" y="639.78" width="1.26" height="3.26"/>
    <polygon points="100.23 643.25 98.33 643.25 98.33 644.52 101.49 644.52 101.49 639.78 100.23 639.78 100.23 643.25"/>
    <rect x="102.05" y="639.79" width="1.26" height="4.73"/>
    <path d="M85.14,642.68c-.23-.26-.58-.39-1.04-.39h-1.15v.96h-5.52s0-1.58,0-1.58h-1.2c-.85,0-1.13.11-1.4.35-.32.28-.49.68-.49,1.18v1.29h-2.96v-2.23h-1.26v2.61c0,.24.06.44.19.59.15.18.38.27.67.27h4.63v-2.55c0-.25.22-.26.22-.26h.35v1.58h6.81c.02.05.05.1.09.14.13.12.35.2.58.2h1.8v-1.44c0-.25-.1-.49-.3-.72h-.01ZM84.43,643.83h-.46v-.55c.23.02.33.08.36.13.06.08.1.19.1.34v.08Z"/>
    <path d="M73.35,645.84c-.3,0-.54.23-.56.53-.03-.29-.26-.52-.56-.52-.31,0-.57.26-.57.57s.26.57.57.57.54-.23.56-.53c.03.29.26.52.56.52.31,0,.57-.26.57-.57s-.26-.57-.57-.57Z"/>
    <path d="M100.23,635.7h-8.25s0-.14,0-.14c0-.37-.14-.71-.39-.98-.27-.29-.67-.45-1.17-.45h-.95v1.24h.77c.14,0,.23,0,.25,0h.02c.06.02.09.03.12.05.08.08.09.13.09.2v.08h-1.25v1.26h12.02v-4.19h-1.26v2.93Z"/>
    <rect x="102.05" y="632.77" width="1.26" height="4.19"/>
    <path d="M88.67,637.73c.15-.21.23-.49.23-.85v-2.75h-1.05c-.41,0-.78.19-1.05.52-.14.16-.22.36-.26.57-.02.13-.03.29-.03.54v1.16h1.1v.04s0,.1-.01.13c-.03,0-.06,0-.11,0h-.97v1.12h1.13c.44,0,.81-.17,1.03-.48ZM87.53,635.99v-.27c0-.26.05-.37.09-.42.05-.06.13-.09.21-.11v.8h-.31Z"/>
    <path d="M84.67,635.7h-7.24v-1.58s-1.2,0-1.2,0c-.85,0-1.12.11-1.4.35-.32.28-.49.68-.49,1.18v1.29h-2.96v-2.23h-1.26v2.61c0,.24.07.44.19.59.15.18.38.27.67.27h4.63v-2.55c0-.25.21-.26.22-.26h.35v1.57h9.76v-4.19h-1.26v2.93Z"/>
    <path d="M72.81,638.89c.03.29.26.52.56.52.31,0,.57-.26.57-.57s-.26-.57-.57-.57-.54.23-.56.53c-.03-.29-.26-.52-.56-.52-.31,0-.57.26-.57.57s.26.57.57.57.54-.23.56-.53Z"/>
    <path d="M67.93,638l-.27-.42.06.49c0,.06.01.12.01.19,0,.32-.1.67-.3,1.03-.11.21-.25.41-.41.6-.14.17-.27.29-.32.34h0s-.44.43-.44.43l-1.29,1.25s-1.21,1.17-1.6,1.54l-.12.12.16.07c.3.14.59.21.87.21.1,0,.2,0,.3-.03h.03s.02-.03.02-.03c.04-.04,1.43-1.38,1.43-1.38l1.21-1.17c.19-.19.36-.38.5-.57.16-.22.28-.44.37-.66.11-.27.16-.54.16-.81,0-.25-.04-.49-.14-.73-.06-.16-.14-.31-.24-.47Z"/>
    <path d="M65.77,638.61c-.1.12-.2.23-.32.34-.13.13-.31.3-.44.43-.62.59-1.05,1.02-1.39,1.35l-.09.09c-.37.36-.9.88-1.58,1.52l-.08.09.76.73h.08l.03-.03c.12-.11,1.75-1.69,1.75-1.69l1.53-1.48c.19-.18.36-.37.5-.57.16-.22.28-.44.37-.66.11-.27.16-.55.16-.81,0-.24-.05-.49-.14-.73-.06-.17-.15-.33-.25-.48l-.27-.39.06.47c0,.06.01.12.01.19,0,.33-.1.67-.29,1.03-.15.27-.3.47-.41.6Z"/>
    <path d="M64.57,637.24l-.05.07c-.07.08-.18.21-.32.34,0,0-.2.19-.44.42l-1.33,1.28c-.11.11-.49.47-.87.84-.35.34-.71.68-.86.83l-.08.08.78.8.08-.08c.12-.12,1.76-1.7,1.76-1.7l1.53-1.48c.19-.19.36-.38.5-.56.16-.22.29-.45.37-.66.11-.27.16-.54.16-.81,0-.25-.05-.49-.14-.73-.06-.17-.15-.33-.25-.47l-.26-.39.05.47s.01.1.01.17v.12s0,.06-.01.1v.03s-.02.09-.03.13v.04s-.03.08-.04.12l-.07.2s-.03.07-.05.1l-.16.31c-.09.15-.19.29-.3.42Z"/>
    <path d="M59.4,632c.32,0,.67.1,1.03.3.21.11.41.25.6.41.17.14.29.27.34.32h0s.43.44.43.44l1.25,1.29s1.17,1.21,1.54,1.6l.12.12.07-.16c.14-.3.21-.59.21-.87,0-.1,0-.2-.03-.3v-.03s-.03-.02-.03-.02c-.04-.04-1.38-1.43-1.38-1.43l-1.17-1.21c-.19-.19-.38-.36-.57-.5-.22-.16-.44-.28-.66-.37-.27-.11-.54-.16-.81-.16-.25,0-.49.04-.73.14-.16.06-.31.14-.47.24l-.42.27.49-.06c.06,0,.12-.01.19-.01Z"/>
    <path d="M58.1,633.25c.33,0,.67.1,1.03.29.27.15.47.3.6.41.12.1.23.2.34.32.13.13.3.31.43.44.59.62,1.02,1.05,1.35,1.39l.09.09c.36.37.88.91,1.52,1.58l.09.08.73-.76v-.08l-.03-.03c-.11-.12-1.69-1.75-1.69-1.75l-1.48-1.53c-.18-.19-.37-.36-.57-.5-.22-.16-.44-.28-.66-.37-.27-.11-.55-.16-.81-.16-.24,0-.49.05-.73.14-.17.06-.33.15-.48.25l-.39.27.47-.06c.06,0,.12-.01.19-.01Z"/>
    <path d="M56.79,634.5h.12s.06,0,.1.01h.03s.09.02.13.03h.04s.08.03.12.04l.2.07s.07.03.1.05l.31.16c.15.09.29.19.42.3l.07.05c.08.07.21.18.34.32,0,0,.19.2.42.44l1.28,1.33c.11.11.47.49.84.87.34.35.68.71.83.86l.08.08.8-.78-.08-.08c-.12-.12-1.7-1.76-1.7-1.76l-1.48-1.53c-.19-.19-.38-.36-.56-.5-.22-.16-.45-.29-.66-.37-.27-.11-.54-.16-.81-.16-.25,0-.49.05-.73.14-.17.06-.33.15-.47.25l-.39.26.47-.05s.1-.01.17-.01Z"/>
    <path d="M53.81,638.74c.14-.17.27-.29.32-.34h0s.44-.43.44-.43l1.29-1.25s1.21-1.17,1.6-1.54l.12-.12-.16-.07c-.3-.14-.59-.21-.87-.21-.1,0-.2,0-.3.03h-.03s-.02.03-.02.03c-.04.04-1.43,1.38-1.43,1.38l-1.21,1.17c-.19.19-.36.38-.5.57-.16.22-.28.44-.37.66-.11.27-.16.54-.16.81,0,.25.04.49.14.73.06.16.14.31.24.47l.27.42-.06-.49c0-.06-.01-.12-.01-.19,0-.32.1-.67.3-1.03.11-.21.25-.41.41-.6Z"/>
    <path d="M55.07,640.03c.1-.12.2-.23.32-.34.13-.13.31-.3.44-.43.62-.59,1.05-1.02,1.39-1.35l.09-.09c.37-.36.91-.88,1.58-1.52l.08-.09-.76-.73h-.08l-.03.03c-.12.11-1.75,1.69-1.75,1.69l-1.53,1.48c-.19.18-.36.37-.5.57-.16.22-.28.44-.37.66-.11.27-.16.55-.16.81,0,.24.05.49.14.73.06.17.15.33.25.48l.27.39-.06-.47c0-.06-.01-.12-.01-.19,0-.33.1-.67.29-1.03.15-.27.3-.47.41-.6Z"/>
    <path d="M56.27,641.39l.05-.07c.07-.08.18-.21.32-.34,0,0,.2-.19.44-.42l1.33-1.28c.11-.11.49-.47.87-.84.35-.34.71-.68.86-.83l.08-.08-.78-.8-.08.08c-.12.12-1.76,1.7-1.76,1.7l-1.53,1.48c-.19.19-.36.38-.5.56-.16.22-.29.45-.37.66-.11.27-.16.54-.16.81,0,.25.05.49.14.73.06.17.15.33.25.47l.26.39-.05-.47s-.01-.1-.01-.17v-.12s0-.06.01-.1v-.03s.02-.09.03-.13v-.04s.03-.08.04-.12l.07-.2s.03-.07.05-.1l.16-.31c.09-.15.19-.29.3-.42Z"/>
    <path d="M61.48,646.63c-.32,0-.67-.1-1.03-.3-.21-.11-.41-.25-.6-.41-.17-.14-.29-.27-.34-.32h0s-.43-.44-.43-.44l-1.25-1.29s-1.17-1.21-1.54-1.6l-.12-.12-.07.16c-.14.3-.21.59-.21.87,0,.1,0,.2.03.3v.03s.03.02.03.02c.04.04,1.38,1.43,1.38,1.43l1.17,1.21c.19.19.38.36.57.5.22.16.44.28.66.37.27.11.54.16.81.16.25,0,.49-.04.73-.14.16-.06.31-.14.47-.24l.42-.27-.49.06c-.06,0-.12.01-.19.01Z"/>
    <path d="M62.77,645.38c-.33,0-.67-.1-1.03-.29-.27-.15-.47-.3-.6-.41-.12-.1-.23-.2-.34-.32-.13-.13-.3-.31-.43-.44-.59-.62-1.02-1.05-1.35-1.39l-.09-.09c-.36-.37-.88-.91-1.52-1.58l-.09-.08-.73.76v.08l.03.03c.11.12,1.69,1.75,1.69,1.75l1.48,1.53c.18.19.37.36.57.5.22.16.44.28.66.37.27.11.55.16.81.16.24,0,.49-.05.73-.14.17-.06.33-.15.48-.25l.39-.27-.47.06c-.06,0-.12.01-.19.01Z"/>
    <path d="M64.09,644.12h-.12s-.06,0-.1-.01h-.03s-.09-.02-.13-.03h-.04s-.08-.03-.12-.04l-.2-.07s-.07-.03-.1-.05l-.31-.16c-.15-.09-.29-.19-.42-.3l-.07-.05c-.08-.07-.21-.18-.34-.32,0,0-.19-.2-.42-.44l-1.28-1.33c-.11-.11-.47-.49-.84-.87-.34-.35-.68-.71-.83-.86l-.08-.08-.8.78.08.08c.12.12,1.7,1.76,1.7,1.76l1.48,1.53c.19.19.38.36.56.5.22.16.45.29.66.37.27.11.54.16.81.16.25,0,.49-.05.73-.14.17-.06.33-.15.47-.25l.39-.26-.47.05s-.1.01-.17.01Z"/>
    <path d="M28.21,643.81c.6-.56,1.92-1.85,1.92-4.73,0-4.17-2.45-6.4-5.74-6.4-4.31,0-6.12,3.24-6.12,6.7,0,2.04.84,6.46,5.59,6.46.3,0,1.14-.05,2-.1.86-.04,1.74-.09,2.06-.09.83,0,2.34.02,3.13.03v-1.99c-1.09-.05-2.27.02-2.85.12ZM24.2,643.87c-2.59,0-3.12-2.85-3.12-4.64,0-2.32.81-4.61,3.2-4.61,1.23,0,1.97.69,2.28,1.18.39.58.79,1.44.79,3.25,0,2.04-.49,4.82-3.16,4.82Z"/>
    <rect x="32.64" y="632.89" width="2.73" height="12.76"/>
    <rect x="37" y="632.89" width="2.73" height="12.76"/>
    <path d="M48.54,639.05v-.03c.74-.19,1.35-.76,1.44-.86.65-.6.74-1.42.74-1.9,0-.74-.26-1.97-1.42-2.71-.97-.6-2.39-.6-3.13-.6h-4.75v12.7h4.75c.49,0,2.22,0,3.2-.51.99-.49,1.87-1.5,1.87-2.99,0-1.34-.76-2.74-2.69-3.1ZM44.01,634.89h1.85c.9,0,2.24,0,2.24,1.58s-1.41,1.64-2.18,1.64h-1.9v-3.22ZM45.86,643.6h-1.85v-3.52h1.57c1.3,0,2.94,0,2.94,1.81,0,1.71-1.41,1.71-2.66,1.71Z"/>
    <path d="M37.99,774.08l-.91,1.78h.24l.23-.46h1.15l.23.46h.24l-.91-1.78h-.26ZM37.65,775.21l.48-.96.48.96h-.95Z"/>
    <polygon points="40.69 774.08 40.47 774.08 40.47 775.86 42.09 775.86 42.09 775.67 40.69 775.67 40.69 774.08"/>
    <polygon points="46.11 774.08 45.78 774.08 44.57 775.03 44.57 774.08 44.35 774.08 44.35 775.86 44.57 775.86 44.57 775.28 45.08 774.88 45.95 775.86 46.24 775.86 45.24 774.75 46.11 774.08"/>
    <path d="M48.28,774.08l-.91,1.78h.24l.23-.46h1.15l.23.46h.24l-.91-1.78h-.27ZM47.94,775.21l.48-.96.48.96h-.96Z"/>
    <path d="M50.91,774.53c0-.23.25-.32.61-.32.48,0,.66.23.73.31l.16-.13c-.12-.17-.41-.36-.88-.36s-.84.15-.84.53c0,.72,1.55.25,1.55.79,0,.28-.37.36-.65.36-.53,0-.7-.22-.81-.36l-.17.14c.15.17.37.41.95.41s.89-.25.89-.55c0-.8-1.55-.28-1.55-.82"/>
    <path d="M53.97,774.53c0-.23.25-.32.61-.32.48,0,.66.23.73.31l.16-.13c-.12-.17-.41-.36-.88-.36s-.84.15-.84.53c0,.72,1.55.25,1.55.79,0,.28-.37.36-.65.36-.53,0-.71-.22-.81-.36l-.17.14c.15.17.37.41.95.41s.89-.25.89-.55c0-.8-1.55-.28-1.55-.82"/>
    <path d="M57.99,774.53c0-.23.25-.32.61-.32.48,0,.66.23.73.31l.16-.13c-.12-.17-.41-.36-.88-.36s-.84.15-.84.53c0,.72,1.55.25,1.55.79,0,.28-.37.36-.65.36-.53,0-.7-.22-.81-.36l-.17.14c.15.17.37.41.95.41s.89-.25.89-.55c0-.8-1.55-.28-1.55-.82"/>
    <path d="M61.96,774.08h-1.04v1.78h.22v-.76h.83c.36,0,.69-.1.69-.51s-.33-.51-.69-.51M61.9,774.91h-.77v-.64h.77c.36,0,.54.08.54.32s-.18.32-.54.32"/>
    <path d="M64.9,774.03c-.61,0-1.04.35-1.04.94,0,.63.53.92,1.04.92s1.04-.29,1.04-.92c0-.59-.44-.94-1.04-.94M64.9,775.71c-.44,0-.82-.23-.82-.77,0-.4.31-.73.82-.73s.82.33.82.73c0,.54-.39.77-.82.77"/>
    <path d="M69.05,774.57c0-.43-.42-.5-.7-.5h-1.03v1.78h.22v-.79h.7l.57.79h.27l-.59-.79c.22-.01.56-.12.56-.49M67.54,774.88v-.61h.76c.31,0,.54.04.54.3s-.23.31-.54.31h-.76Z"/>
    <polygon points="70.26 774.27 71.12 774.27 71.12 775.86 71.33 775.86 71.33 774.27 72.19 774.27 72.19 774.08 70.26 774.08 70.26 774.27"/>
    <path d="M73.66,774.53c0-.23.25-.32.61-.32.48,0,.66.23.73.31l.16-.13c-.12-.17-.41-.36-.88-.36s-.84.15-.84.53c0,.72,1.55.25,1.55.79,0,.28-.37.36-.65.36-.53,0-.7-.22-.81-.36l-.17.14c.15.17.37.41.95.41s.89-.25.89-.55c0-.8-1.55-.28-1.55-.82"/>
    <path d="M78.64,775.71c-.54,0-.81-.3-.81-.71,0-.51.29-.78.8-.78.34,0,.62.12.74.42l.19-.09c-.16-.36-.55-.51-.93-.51-.6,0-1.01.33-1.01.94,0,.52.33.93,1.02.93.43,0,.76-.15.95-.52l-.19-.09c-.15.27-.39.42-.74.42"/>
    <polygon points="82.55 774.83 81.15 774.83 81.15 774.08 80.94 774.08 80.94 775.86 81.15 775.86 81.15 775.02 82.55 775.02 82.55 775.86 82.77 775.86 82.77 774.08 82.55 774.08 82.55 774.83"/>
    <path d="M84.99,774.08l-.91,1.78h.24l.23-.46h1.15l.23.46h.24l-.91-1.78h-.27ZM84.65,775.21l.48-.96.48.96h-.96Z"/>
    <polygon points="89.11 775.54 87.78 774.08 87.48 774.08 87.48 775.86 87.68 775.86 87.68 774.27 89.11 775.86 89.32 775.86 89.32 774.08 89.11 774.08 89.11 775.54"/>
    <polygon points="92.45 775.54 91.12 774.08 90.82 774.08 90.82 775.86 91.02 775.86 91.02 774.27 92.45 775.86 92.66 775.86 92.66 774.08 92.45 774.08 92.45 775.54"/>
    <polygon points="94.38 775.03 95.52 775.03 95.52 774.84 94.38 774.84 94.38 774.27 95.75 774.27 95.75 774.08 94.16 774.08 94.16 775.86 95.77 775.86 95.77 775.67 94.38 775.67 94.38 775.03"/>
    <polygon points="97.31 774.08 97.1 774.08 97.1 775.86 98.71 775.86 98.71 775.67 97.31 775.67 97.31 774.08"/>
    <path d="M100.18,774.53c0-.23.25-.32.61-.32.48,0,.66.23.73.31l.16-.13c-.12-.17-.41-.36-.88-.36s-.84.15-.84.53c0,.72,1.55.25,1.55.79,0,.28-.37.36-.65.36-.53,0-.7-.22-.81-.36l-.17.14c.15.17.37.41.95.41s.89-.25.89-.55c0-.8-1.55-.28-1.55-.82"/>
    <path d="M40.56,761.54l-3.47,10.97h4.12l.44-1.76h3.11l.42,1.76h4.45l-3.49-10.97h-5.58ZM42.29,768.07l.95-4.13h.03l.86,4.13h-1.83Z"/>
    <polygon points="58.04 769.56 54.09 769.56 54.09 761.54 49.79 761.54 49.79 772.51 58.04 772.51 58.04 769.56"/>
    <path d="M78.16,761.54h-5.58l-3.16,10-2.76-4.84,2.91-5.16h-4.54l-2.21,4.71h-.03v-4.71h-4.21v10.97h4.21v-4.92h.03l2.5,4.92h7.91l.44-1.76h3.11l.42,1.76h4.45l-3.49-10.97ZM74.32,768.07l.95-4.13h.03l.86,4.13h-1.84Z"/>
    <path d="M91.54,768.99c0-.68-.16-1.26-.49-1.75-.33-.49-.82-.87-1.49-1.14-.25-.12-.53-.22-.83-.32-.3-.09-.55-.17-.74-.22-.2-.05-.49-.13-.89-.23-.4-.1-.72-.19-.97-.26-.24-.07-.42-.16-.53-.26-.12-.1-.17-.25-.17-.43,0-.19.08-.35.25-.47.17-.12.41-.18.74-.18.62,0,.93.31.95.92h3.85c0-.63-.12-1.17-.35-1.6-.24-.44-.56-.79-.98-1.05-.42-.26-.91-.45-1.48-.57-.57-.12-1.21-.18-1.92-.18-1.05,0-1.95.14-2.7.41-.75.28-1.32.68-1.71,1.22-.39.53-.59,1.18-.59,1.93s.17,1.35.52,1.84c.35.49.92.85,1.73,1.09l3.05.9c.48.16.72.41.72.75,0,.25-.1.46-.29.64-.19.18-.44.27-.75.27-.38,0-.66-.12-.84-.36-.15-.21-.23-.48-.23-.83h-4.12c0,.9.23,1.63.68,2.17.46.55,1.06.93,1.8,1.16.74.22,1.59.34,2.54.34,1.05,0,1.96-.13,2.75-.4.78-.27,1.39-.68,1.83-1.26.44-.57.65-1.29.65-2.15"/>
    <path d="M100.05,766.11c-.25-.12-.53-.22-.83-.32-.3-.09-.55-.17-.74-.22-.2-.05-.49-.13-.89-.23-.4-.1-.72-.19-.97-.26-.24-.07-.42-.16-.53-.26-.11-.1-.17-.25-.17-.43,0-.19.08-.35.25-.47.17-.12.41-.18.74-.18.62,0,.93.31.95.92h3.85c0-.63-.12-1.16-.35-1.6-.24-.44-.56-.79-.98-1.05-.42-.26-.91-.45-1.48-.57-.57-.12-1.21-.18-1.92-.18-1.05,0-1.95.14-2.7.41-.75.28-1.32.68-1.71,1.22-.39.53-.59,1.18-.59,1.93s.17,1.35.52,1.84c.35.49.93.85,1.73,1.09l3.05.9c.48.16.72.41.72.75,0,.25-.1.46-.29.64-.19.18-.44.27-.75.27-.38,0-.66-.12-.84-.36-.15-.21-.23-.48-.23-.83h-4.12c0,.9.23,1.63.68,2.17.45.55,1.05.93,1.8,1.16.74.23,1.59.34,2.54.34,1.05,0,1.96-.13,2.75-.4.79-.27,1.4-.68,1.83-1.26.44-.57.66-1.29.66-2.15,0-.68-.17-1.26-.49-1.75-.33-.49-.82-.87-1.49-1.14"/>
    <path d="M102.67,761.55c-.35,0-.64.28-.64.64s.29.63.64.63.64-.29.64-.63-.28-.64-.64-.64ZM102.67,762.73c-.3,0-.55-.25-.55-.55s.25-.55.55-.55.55.25.55.55-.25.55-.55.55ZM102.98,762.01c0-.12-.08-.21-.25-.21h-.33v.72h.11v-.3h.08l.32.3h.15l-.33-.3c.15,0,.25-.07.25-.21ZM102.51,762.13v-.25h.19c.06,0,.1.01.12.02.03.02.05.05.05.1,0,.07-.05.12-.17.12h-.19Z"/>
    <polygon points="18.27 767.14 27.07 767.14 27.07 775.96 32.63 775.96 32.63 761.54 18.27 761.54 18.27 767.14"/>
  </g>
</svg>