<?xml version="1.0" encoding="UTF-8"?>
<svg id="Artwork" xmlns="http://www.w3.org/2000/svg" xmlns:xlink="http://www.w3.org/1999/xlink" version="1.1" viewBox="0 0 254.42 114">
  <!-- Generator: Adobe Illustrator 29.8.1, SVG Export Plug-In . SVG Version: 2.1.1 Build 2)  -->
  <defs>
    <radialGradient id="Unbenannter_Verlauf_2" data-name="Unbenannter Verlauf 2" cx="13.27" cy="30.95" fx="13.27" fy="30.95" r="86.1" gradientUnits="userSpaceOnUse">
      <stop offset="0" stop-color="#dad8d8"/>
      <stop offset=".59" stop-color="#dbd9d9"/>
      <stop offset=".8" stop-color="#e1e0e0"/>
      <stop offset=".95" stop-color="#ececec"/>
      <stop offset="1" stop-color="#f2f2f2"/>
    </radialGradient>ِِ
    <radialGradient id="radial-gradient" cx="-26.57" cy="85.92" fx="-26.57" fy="85.92" r="71.23" gradientTransform="translate(46.54 7.02) rotate(28.52) scale(1 1.21)" gradientUnits="userSpaceOnUse">
      <stop offset="0" stop-color="#dad8d8" stop-opacity="0"/>
      <stop offset=".16" stop-color="#d1cfcf" stop-opacity=".04"/>
      <stop offset=".21" stop-color="#cfcdcd" stop-opacity=".07"/>
      <stop offset=".25" stop-color="#cccaca" stop-opacity=".13"/>
      <stop offset=".29" stop-color="#c7c5c5" stop-opacity=".25"/>
      <stop offset=".33" stop-color="#c0bebe" stop-opacity=".41"/>
      <stop offset=".37" stop-color="#b7b5b5" stop-opacity=".62"/>
      <stop offset=".41" stop-color="#acaaaa" stop-opacity=".87"/>
      <stop offset=".43" stop-color="#a6a4a4"/>
      <stop offset=".52" stop-color="#f2f2f2"/>
      <stop offset=".59" stop-color="#f3f3f3"/>
      <stop offset=".61" stop-color="#fafafa"/>
      <stop offset=".61" stop-color="#fff"/>
      <stop offset=".63" stop-color="#ebeaea"/>
      <stop offset=".63" stop-color="#e9e8e8"/>
      <stop offset=".66" stop-color="#e6e5e5" stop-opacity=".82"/>
      <stop offset=".71" stop-color="#e3e1e1" stop-opacity=".61"/>
      <stop offset=".75" stop-color="#e0dede" stop-opacity=".42"/>
      <stop offset=".8" stop-color="#dedcdc" stop-opacity=".27"/>
      <stop offset=".84" stop-color="#dcdada" stop-opacity=".15"/>
      <stop offset=".89" stop-color="#dbd9d9" stop-opacity=".07"/>
      <stop offset=".94" stop-color="#dad8d8" stop-opacity=".02"/>
      <stop offset=".99" stop-color="#dad8d8" stop-opacity="0"/>
    </radialGradient>
    <radialGradient id="radial-gradient1" cx="19.22" cy="94.71" fx="19.22" fy="94.71" r="22.11" gradientUnits="userSpaceOnUse">
      <stop offset="0" stop-color="#f2f2f2"/>
      <stop offset=".62" stop-color="#dad8d8"/>
      <stop offset="1" stop-color="#a6a4a4"/>
    </radialGradient>
    <radialGradient id="radial-gradient2" cx="19.33" cy="31.08" fx="19.33" fy="31.08" r="28.2" gradientUnits="userSpaceOnUse">
      <stop offset="0" stop-color="#a6a4a4"/>
      <stop offset=".5" stop-color="#817e7d"/>
      <stop offset="1" stop-color="#363432"/>
    </radialGradient>
    <radialGradient id="radial-gradient3" cx="32.48" cy="66.98" fx="32.48" fy="66.98" r="73.06" gradientUnits="userSpaceOnUse">
      <stop offset="0" stop-color="#f2f2f2"/>
      <stop offset=".37" stop-color="#dad8d8"/>
      <stop offset=".72" stop-color="#a6a4a4"/>
      <stop offset="1" stop-color="#363432"/>
    </radialGradient>
    <radialGradient id="radial-gradient4" cx="31.55" cy="49.23" fx="31.55" fy="49.23" r="44.77" gradientUnits="userSpaceOnUse">
      <stop offset="0" stop-color="#dad8d8"/>
      <stop offset=".5" stop-color="#817e7d"/>
      <stop offset="1" stop-color="#363432"/>
    </radialGradient>
    <radialGradient id="radial-gradient5" cx="23.79" cy="41.09" fx="23.79" fy="41.09" r="32.77" gradientUnits="userSpaceOnUse">
      <stop offset="0" stop-color="#a6a4a4"/>
      <stop offset=".5" stop-color="#817e7d"/>
      <stop offset="1" stop-color="#363432"/>
    </radialGradient>
    <radialGradient id="radial-gradient6" cx="29.69" cy="46.58" fx="29.69" fy="46.58" r="40.61" gradientUnits="userSpaceOnUse">
      <stop offset="0" stop-color="#dad8d8"/>
      <stop offset=".3" stop-color="#a6a4a4"/>
      <stop offset=".7" stop-color="#817e7d"/>
      <stop offset="1" stop-color="#363432"/>
    </radialGradient>
    <radialGradient id="radial-gradient7" cx="32.06" cy="24.33" fx="32.06" fy="24.33" r="20.84" gradientUnits="userSpaceOnUse">
      <stop offset="0" stop-color="#a6a4a4"/>
      <stop offset=".2" stop-color="#817e7d"/>
      <stop offset="1" stop-color="#363432"/>
    </radialGradient>
    <radialGradient id="radial-gradient8" cx="-7.07" cy="70.21" fx="-7.07" fy="70.21" r="84.39" xlink:href="#radial-gradient6"/>
    <radialGradient id="radial-gradient9" cx="50.92" cy="103.64" fx="50.92" fy="103.64" r="45.2" xlink:href="#radial-gradient6"/>
    <radialGradient id="radial-gradient10" cx="35.38" cy="11.39" fx="35.38" fy="11.39" r="68.18" gradientUnits="userSpaceOnUse">
      <stop offset="0" stop-color="#dad8d8" stop-opacity="0"/>
      <stop offset=".08" stop-color="#d1cfcf" stop-opacity=".04"/>
      <stop offset=".1" stop-color="#c9c7c7" stop-opacity=".04"/>
      <stop offset=".27" stop-color="#a6a4a4" stop-opacity="0"/>
      <stop offset=".46" stop-color="#f2f2f2"/>
      <stop offset=".51" stop-color="#f0f0f0"/>
      <stop offset=".53" stop-color="#eae9e9"/>
      <stop offset=".54" stop-color="#dfdddd"/>
      <stop offset=".55" stop-color="#dad8d8"/>
      <stop offset=".67" stop-color="#dad8d8"/>
      <stop offset=".8" stop-color="#f2f2f2"/>
      <stop offset=".99" stop-color="#f2f2f2" stop-opacity="0"/>
    </radialGradient>
    <radialGradient id="radial-gradient11" cx="31.03" cy="-2.08" fx="31.03" fy="-2.08" r="47.1" gradientUnits="userSpaceOnUse">
      <stop offset="0" stop-color="#dad8d8" stop-opacity="0"/>
      <stop offset=".17" stop-color="#d1cfcf" stop-opacity=".04"/>
      <stop offset=".19" stop-color="#c4c2c2" stop-opacity=".32"/>
      <stop offset=".23" stop-color="#b7b5b5" stop-opacity=".61"/>
      <stop offset=".25" stop-color="#adabab" stop-opacity=".82"/>
      <stop offset=".28" stop-color="#a8a6a6" stop-opacity=".95"/>
      <stop offset=".29" stop-color="#a6a4a4"/>
      <stop offset=".51" stop-color="#f2f2f2"/>
      <stop offset=".54" stop-color="#f3f3f3"/>
      <stop offset=".55" stop-color="#fafafa"/>
      <stop offset=".55" stop-color="#fff"/>
      <stop offset=".71" stop-color="#dad8d8"/>
      <stop offset=".99" stop-color="#dad8d8" stop-opacity="0"/>
    </radialGradient>
    <radialGradient id="radial-gradient12" cx="34.13" cy="12.64" fx="34.13" fy="12.64" r="32.51" gradientUnits="userSpaceOnUse">
      <stop offset=".31" stop-color="#f2f2f2"/>
      <stop offset=".57" stop-color="#dad8d8"/>
      <stop offset="1" stop-color="#817e7d" stop-opacity=".5"/>
    </radialGradient>
    <radialGradient id="radial-gradient13" cx="19.31" cy="36.47" fx="19.31" fy="36.47" r="59.64" gradientTransform="translate(-5.69 10.15) rotate(-11.39) scale(1 .84)" gradientUnits="userSpaceOnUse">
      <stop offset="0" stop-color="#dad8d8" stop-opacity="0"/>
      <stop offset=".16" stop-color="#d1cfcf" stop-opacity=".04"/>
      <stop offset=".42" stop-color="#bfbdbd" stop-opacity=".03"/>
      <stop offset=".56" stop-color="#a6a4a4" stop-opacity="0"/>
      <stop offset=".61" stop-color="#dad8d8"/>
      <stop offset=".63" stop-color="#dedcdc" stop-opacity=".71"/>
      <stop offset=".64" stop-color="#e2e0e0" stop-opacity=".46"/>
      <stop offset=".66" stop-color="#e5e3e3" stop-opacity=".26"/>
      <stop offset=".67" stop-color="#e7e6e6" stop-opacity=".12"/>
      <stop offset=".68" stop-color="#e8e7e7" stop-opacity=".03"/>
      <stop offset=".69" stop-color="#e9e8e8" stop-opacity="0"/>
      <stop offset=".69" stop-color="#e9e8e8" stop-opacity=".06"/>
      <stop offset=".7" stop-color="#e9e8e8" stop-opacity=".25"/>
      <stop offset=".71" stop-color="#e9e8e8" stop-opacity=".4"/>
      <stop offset=".72" stop-color="#e9e8e8" stop-opacity=".51"/>
      <stop offset=".72" stop-color="#e9e8e8" stop-opacity=".58"/>
      <stop offset=".73" stop-color="#e9e8e8" stop-opacity=".6"/>
      <stop offset=".74" stop-color="#e7e6e6" stop-opacity=".54"/>
      <stop offset=".78" stop-color="#e3e2e2" stop-opacity=".38"/>
      <stop offset=".81" stop-color="#e0dede" stop-opacity=".24"/>
      <stop offset=".85" stop-color="#dddbdb" stop-opacity=".13"/>
      <stop offset=".89" stop-color="#dbd9d9" stop-opacity=".06"/>
      <stop offset=".94" stop-color="#dad8d8" stop-opacity=".01"/>
      <stop offset=".99" stop-color="#dad8d8" stop-opacity="0"/>
    </radialGradient>
    <radialGradient id="radial-gradient14" cx="17.87" cy="37.36" fx="17.87" fy="37.36" r="54.58" gradientTransform="translate(-13.17 24.37) rotate(-35.22) scale(1 .76)" gradientUnits="userSpaceOnUse">
      <stop offset="0" stop-color="#dad8d8" stop-opacity="0"/>
      <stop offset=".16" stop-color="#d1cfcf" stop-opacity=".04"/>
      <stop offset=".2" stop-color="#cfcdcd" stop-opacity=".07"/>
      <stop offset=".24" stop-color="#cccaca" stop-opacity=".13"/>
      <stop offset=".28" stop-color="#c7c5c5" stop-opacity=".25"/>
      <stop offset=".31" stop-color="#c0bebe" stop-opacity=".41"/>
      <stop offset=".35" stop-color="#b7b5b5" stop-opacity=".62"/>
      <stop offset=".38" stop-color="#acaaaa" stop-opacity=".87"/>
      <stop offset=".4" stop-color="#a6a4a4"/>
      <stop offset=".56" stop-color="#f2f2f2"/>
      <stop offset=".6" stop-color="#f3f3f3"/>
      <stop offset=".61" stop-color="#fafafa"/>
      <stop offset=".62" stop-color="#fff"/>
      <stop offset=".63" stop-color="#ebeaea"/>
      <stop offset=".65" stop-color="#dad8d8"/>
      <stop offset=".66" stop-color="#dedcdc" stop-opacity=".71"/>
      <stop offset=".68" stop-color="#e2e0e0" stop-opacity=".46"/>
      <stop offset=".69" stop-color="#e5e3e3" stop-opacity=".26"/>
      <stop offset=".71" stop-color="#e7e6e6" stop-opacity=".12"/>
      <stop offset=".72" stop-color="#e8e7e7" stop-opacity=".03"/>
      <stop offset=".72" stop-color="#e9e8e8" stop-opacity="0"/>
      <stop offset=".99" stop-color="#dad8d8" stop-opacity="0"/>
    </radialGradient>
  </defs>
  <g>
    <g>
      <path d="M37.88,65.6s0,0,0,0c5.64-10.98,12.58-24.03,15.72-34.55,3.15-10.55-.94-29.24-26.01-31.05h0C11.91.42,4.79,6.97,1.87,14.19-.52,19.41-.2,24.99.53,29.05c1.63,9.08,14.58,30.9,14.78,31.28,1.34,2.7,4.59,10.58,3.68,19.23-.04.38-.09.79-.15,1.2,0,0-.16,1-.21,1.23-.3,1.5-.71,3.01-1.2,4.48-3.44,10.34-10.81,19.54-10.79,20.88.02.84.99,2.15,2.15,3.29.99.96,2.02,1.74,2.83,2.05,0,0,.26.1.38.12,3.34.69,9.16,1.19,16.8,1.19,10.14,0,21.12-1.34,21.12-3.25,0-1.77-8.73-10.99-14.44-28.1h0c-.42-4.7-.56-11.27,2.34-16.93.02-.04.04-.08.06-.12ZM34.83,42.7c-4.19,8.2-6.8,14.1-8.41,18.34h0c-5.33-8.66-12.42-17.63-13.9-20-1.78-2.85-2.79-5.47-3.27-7.81h0c-1.68-9.56,3.23-14.77,14.53-18.84h0c.76.18,6.55,1.62,10.89,5.64,2.5,2.32,5.32,5.95,3.7,13.39h0c-.57,2.6-1.67,5.65-3.53,9.29Z" fill="#dad8d8"/>
      <path d="M1.87,14.19C-.52,19.41-.2,24.99.53,29.05c1.63,9.08,14.58,30.9,14.78,31.28,1.34,2.7,4.59,10.58,3.68,19.23-.04.38-.09.79-.15,1.2,0,0-.16,1-.21,1.23-.3,1.5-.71,3.01-1.2,4.48-3.44,10.34-10.81,19.54-10.79,20.88.02.84.99,2.15,2.15,3.29.99.96,2.02,1.74,2.83,2.05,0,0,.26.1.38.12,3.34.69,9.16,1.19,16.8,1.19,10.14,0,21.12-1.34,21.12-3.25,0-1.77-8.73-10.99-14.44-28.1h0c-2.18-6.39-5.38-15.88-9.05-21.62h0c-5.33-8.66-12.42-17.63-13.9-20-1.78-2.85-2.79-5.47-3.27-7.81,0,0-6.53-18.32,22.01-26.81l-3.67-6.41h0C11.91.42,4.79,6.97,1.87,14.19Z" fill="url(#Unbenannter_Verlauf_2)"/>
      <path d="M1.87,14.19C-.52,19.41-.2,24.99.53,29.05c1.63,9.08,14.58,30.9,14.78,31.28,1.34,2.7,4.59,10.58,3.68,19.23-.04.38-.09.79-.15,1.2,0,0-.16,1-.21,1.23-.3,1.5-.71,3.01-1.2,4.48-3.44,10.34-10.81,19.54-10.79,20.88.02.84.99,2.15,2.15,3.29.99.96,2.02,1.74,2.83,2.05,0,0,.26.1.38.12,3.34.69,9.16,1.19,16.8,1.19,10.14,0,21.12-1.34,21.12-3.25,0-1.77-8.73-10.99-14.44-28.1h0c-2.18-6.39-5.38-15.88-9.05-21.62h0c-5.33-8.66-12.42-17.63-13.9-20-1.78-2.85-2.79-5.47-3.27-7.81,0,0-6.53-18.32,22.01-26.81l-3.67-6.41h0C11.91.42,4.79,6.97,1.87,14.19Z" fill="url(#radial-gradient)"/>
      <path d="M16.54,95.41c.89-4.13,1.97-10.57,2.41-15.45-.03.26-.07.53-.11.8,0,0-.16,1-.21,1.23-.3,1.5-.71,3.01-1.2,4.48-3.44,10.34-10.81,19.54-10.79,20.88.02.84.99,2.15,2.15,3.29.99.96,2.02,1.74,2.82,2.05-.09-.07-.23-.27-.27-.39-.04-.13-.05-.28,0-.47.34-1.48,4.03-11.02,5.19-16.42Z" fill="url(#radial-gradient1)"/>
      <path d="M38.36,33.41h0c.06-.17,4.74-14.21-7.11-27l-7.48,7.97c.76.18,6.55,1.62,10.89,5.64,2.5,2.32,5.32,5.95,3.7,13.39Z" fill="url(#radial-gradient2)"/>
      <path d="M31.25,6.41c11.92,12.87,7.11,27,7.11,27h0c-.57,2.6-1.67,5.65-3.53,9.29-4.19,8.2-6.8,14.1-8.41,18.34h0c3.67,5.74,6.87,15.22,9.05,21.62h0c-.42-4.7-.56-11.27,2.34-16.93.02-.04.04-.08.06-.12,0,0,0,0,0,0,0,0,0,0,0,0,.99-1.92,13.65-26.97,11.18-40.88-2.25-12.7-17.81-18.31-17.81-18.31Z" fill="url(#radial-gradient3)"/>
      <path d="M35.47,82.65c-.36-4.09-.52-9.6,1.36-14.69,0,0-1.88,2.89-5.74-3.71-2.17-3.71-2.5-6.91-2.4-8.75-.92,2.1-1.67,3.93-2.27,5.53h0c3.67,5.74,6.87,15.22,9.05,21.62h0Z" fill="url(#radial-gradient4)"/>
      <path d="M39.04,22.3l-.09-.02.05-.2c-.02-.13-.04-.26-.06-.39l-.75-.2.2-.75-.9-.24.22-.83-.34-.09.14-.55.18.05.19-.71-.18-.05.14-.55.18.05c-.06-.19-.12-.38-.19-.57l-1.82-.48.14-.55-.9-.24.2-.75-.9-.24.22-.83-.34-.09.14-.55.18.05.19-.71-.18-.05.14-.55.34.09.13-.49c-.08-.14-.16-.27-.25-.41l-.1.39-1.97-.52.14-.55-.9-.24.2-.75-.9-.24.22-.83-.34-.09.14-.55.18.05.19-.71-.18-.05.08-.31c-.2-.23-.41-.46-.62-.69l-2.56,2.73.52.14.18-.68,1.97.52-.18.68.84.22-.2.75.94.25-.18.67.33.09-.14.55-.18-.05-.19.71.18.05-.14.55-.33-.09-.22.83-.94-.25-.2.75-.84-.22-.14.55-1.97-.52.14-.55-.9-.24.2-.75-.9-.24.22-.83-.34-.09.06-.24-.6.64.42.11-.18.68.84.22-.2.75.94.25-.18.67.33.09-.13.49c.64.26,1.34.58,2.06.94l.08-.32-.18-.05.14-.55.34.09.18-.67.9.24.2-.75.9.24.18-.68,1.97.52-.18.68.84.22-.2.75.94.25-.18.67.33.09-.14.55-.18-.05-.19.71.18.05-.14.55-.33-.09-.22.83-.57-.15c.13.12.27.24.4.36.03.03.06.06.09.09l.36.09.18-.68,1.97.52-.18.68.84.22-.2.75.94.25-.18.67.33.09-.14.55-.18-.05-.19.71.18.05-.14.55-.33-.09-.04.17c.08.19.15.38.22.58l.04-.15,1.07.28c-.03-.94-.12-1.95-.27-3ZM38.62,32.02l.1.03c.06-.29.13-.62.2-.99l-.17-.04c-.03.33-.08.66-.13,1.01Z" fill="url(#radial-gradient5)"/>
      <path d="M49.37,29.47c.01-.4.01-.8,0-1.19l-.73-.19.22-.83-.34-.09.14-.55.18.05.19-.71-.18-.05.14-.55.17.04c-.02-.16-.05-.32-.07-.48l-1.95-.51.14-.55-.9-.24.2-.75-.9-.24.22-.83-.34-.09.14-.55.18.05.19-.71-.18-.05.14-.55.34.09.18-.67.74.19c-.08-.15-.16-.31-.25-.46l-.72-.19-.14.55-1.97-.52.14-.55-.9-.24.2-.75-.9-.24.22-.83-.34-.09.14-.55.18.05.19-.71-.18-.05.14-.55.34.09.05-.17c-.12-.12-.24-.25-.36-.37l-1.87-.49.14-.55-.9-.24.2-.75-.9-.24.13-.5c-.71-.53-1.41-1.02-2.1-1.46l-.14.52-.33-.09-.22.83-.94-.25-.2.75-.84-.22-.04.16c.08.14.17.27.25.41l.05-.18.9.24.2-.75.9.24.18-.68,1.97.52-.18.68.84.22-.2.75.94.25-.18.67.33.09-.14.55-.18-.05-.19.71.18.05-.14.55-.33-.09-.22.83-.94-.25-.2.75-.84-.22-.14.55-.15-.04c.07.19.13.38.19.57l.15.04.18-.67.9.24.2-.75.9.24.18-.68,1.97.52-.18.68.84.22-.2.75.94.25-.18.67.33.09-.14.55-.18-.05-.19.71.18.05-.14.55-.33-.09-.22.83-.94-.25-.2.75-.84-.22-.14.55-1.88-.49h0c.15,1.05.23,2.05.27,3h0l.89.23-.18.68.84.22-.2.75.94.25-.18.67.33.09-.14.55-.18-.05-.19.71.18.05-.14.55-.33-.09-.22.83-.94-.25-.2.75-.68-.18c-.07.37-.13.7-.2.99l.11.03.18-.67.9.24.2-.75.9.24.18-.68,1.97.52-.18.68.84.22-.2.75.94.25-.18.67.33.09-.14.55-.18-.05-.19.71.18.05-.14.55-.33-.09-.22.83-.94-.25-.2.75-.84-.22-.14.55-1.97-.52.14-.55-.9-.24.2-.75s-.71-.18-1-.26c-.03.12-.07.24-.1.36l.61.16-.2.75.94.25-.18.67.33.09-.14.55-.18-.05-.19.71.18.05-.14.55-.33-.09-.22.83-.94-.25-.2.75-.84-.22-.14.55-.3-.08c-.35.79-.75,1.6-1.18,2.45-.01.03-.03.05-.04.08h0l.82.22-.18.68.84.22-.2.75.94.25-.18.67.33.09-.14.55-.18-.05-.19.71.18.05-.26.99,1.99.53-.18.68.84.22-.2.75.94.25-.18.67.33.09-.14.55-.18-.05-.19.71.18.05-.29,1.05,2,.53-.18.68.84.22-.2.75.44.12c.05-.12.1-.24.15-.36l-.1-.03.2-.75-.9-.24.22-.83-.34-.09.14-.55.18.05.19-.71-.18-.05.14-.55.34.09.18-.67.9.24.2-.75.66.17c.13-.36.27-.73.4-1.1l-.22-.06-.22.83-.94-.25-.2.75-.84-.22-.14.55-1.97-.52.14-.55-.9-.24.2-.75-.9-.24.22-.83-.34-.09.14-.55.18.05.19-.71-.18-.05.14-.55.34.09.18-.67.9.24.2-.75.9.24.18-.68,1.97.52-.18.68.84.22-.2.75.94.25-.18.67.37.1c.11-.31.22-.63.32-.95l-.98-.26.2-.75-.9-.24.22-.83-.34-.09.14-.55.18.05.19-.71-.18-.05.14-.55.34.09.18-.67.9.24.2-.75.9.24.18-.68.29.08c.25-.92.48-1.83.69-2.75l-.26-.07.14-.55-.9-.24.2-.75-.9-.24.22-.83-.34-.09.14-.55.18.05.19-.71-.18-.05.14-.55.34.09.18-.67.9.24.2-.75.75.2c.01-.1.03-.2.04-.31l-1.1-.29-.2.75-.84-.22-.14.55-1.97-.52.14-.55-.9-.24.2-.75-.9-.24.22-.83-.34-.09.14-.55.18.05.19-.71-.18-.05.14-.55.34.09.18-.67.9.24.2-.75.9.24.18-.68,1.97.52-.18.68.84.22-.2.75.5.13ZM42.27,42.94l-.18-.05-.19.71.18.05-.14.55-.33-.09-.22.83-.94-.25-.2.75-.84-.22-.14.55-1.97-.52.14-.55-.9-.24.2-.75-.9-.24.22-.83-.34-.09.14-.55.18.05.19-.71-.18-.05.14-.55.34.09.18-.67.9.24.2-.75.9.24.18-.68,1.97.52-.18.68.84.22-.2.75.94.25-.18.67.33.09-.14.55ZM46.1,36.46l-.18.68.84.22-.2.75.94.25-.18.67.33.09-.14.55-.18-.05-.19.71.18.05-.14.55-.33-.09-.22.83-.94-.25-.2.75-.84-.22-.14.55-1.97-.52.14-.55-.9-.24.2-.75-.9-.24.22-.83-.34-.09.14-.55.18.05.19-.71-.18-.05.14-.55.34.09.18-.67.9.24.2-.75.9.24.18-.68,1.97.52ZM46.88,25.4l-.18-.05-.19.71.18.05-.14.55-.33-.09-.22.83-.94-.25-.2.75-.84-.22-.14.55-1.97-.52.14-.55-.9-.24.2-.75-.9-.24.22-.83-.34-.09.14-.55.18.05.19-.71-.18-.05.14-.55.34.09.18-.67.9.24.2-.75.9.24.18-.68,1.97.52-.18.68.84.22-.2.75.94.25-.18.67.33.09-.14.55ZM38.94,21.69c.02.13.04.26.06.39l.09-.35-.15-.04Z" fill="url(#radial-gradient6)"/>
      <path d="M23.78,14.38h0s7.48-7.97,7.48-7.97C2.72,14.9,9.25,33.22,9.25,33.22c-1.68-9.56,3.23-14.77,14.53-18.84Z" fill="url(#radial-gradient7)"/>
      <path d="M24.3,85.31c-2.43-4.99-4.2-2.13-5.7-2.13-.05.42-.11.84-.16,1.26,2.34,2.6,3.63-2.22,5.86.88ZM20.21,102.29s0,0,0-.01c0,0,0,0,0,.01-2.14-4.51,3.67-3.61,1.72-9.2,3.73,3.95,4.5-2.49,7.58.06-4.16-5.57-5.78,2.18-8.37-1.53h0s0,0,0,0c1.56,4.25-4.16,3.43-1.91,9.08-1.66-1.99-2.79-1.85-3.73-1.33h0c-.31,1.04-.65,2.12-1.01,3.19.22.09.45.15.69.19,2.27-.03,2.56-3.4,5.04-.44ZM17.31,97.12s0,0,0-.01c0,0,0,0,0,.01-1.59-4.59,3.76-3.08,2.28-8.77,3.27,4.37,4.42-1.95,7.19,1.09-3.72-6.22-5.64,1.35-7.84-2.64h0s0,0,0,0c.64,2.27-.5,2.96-1.49,3.94h0c-.3,1.71-.62,3.31-.91,4.66,0,.01,0,.02,0,.03,0,.01,0,.02,0,.03,0,0,0-.01-.01-.02-.04.19-.08.38-.13.58.28.21.57.56.91,1.09ZM22.13,80.9c-1.08-2.79-2.09-3.3-3-3.22-.02.62-.07,1.25-.13,1.88-.01.13-.03.26-.05.4,0,.09-.02.18-.03.28,1.05-.39,2.04-1.37,3.21.66ZM19.11,74.97c.41.09.81.45,1.22,1.35-.43-1.47-.88-2.34-1.33-2.83.05.49.08.98.11,1.48h0ZM42.52,102.99c-.84-.74-4.96-2.93-6.68.12-1.53,2.71-3.26,2.26-4.38,1.48,0,0,0,0,0,0h0c3.3,3.76-2.76,4.84.1,9.38.43-.01.86-.02,1.3-.04.02-2.38,3.59-3.9.13-8.08,6.19,2.81,4.68-4.56,9.53-2.86ZM24.07,107.3s0,0,0-.01c0,0,0,0,0,0-2.99-4.49,3.36-4.07.66-9.77,4.55,3.58,4.52-3.29,8.37-.9-5.28-5.27-6.2,2.9-9.31-.47,0,0,0,0,0,0t0,0c1.96,4.23-4.22,3.97-1.04,9.6-5.02-4.48-4.99,3.49-8.25-.93.63,1.75,2.2,3.59,4.12,3.6,2.51-.36,2.25-3.9,5.45-1.12ZM46.74,105.43c-.09-.14-.19-.29-.29-.43-1.77-.68-4.11-.24-5.21.97-1.51,1.67-1.81,3.86-4.8,2.48,0,0,0,0,0,0h0c2.13,2.08.86,3.55.11,5.31,1.1-.07,2.17-.16,3.2-.26.15-1.1-.17-2.35-1.65-3.91,5.96,2.11,4.71-4.38,8.64-4.15ZM48.01,107.33c-2.64,1.48-2.62,5.92-6.3,4.54,0,0,0,0,0,0,0,0,0,0,0,0,.49.44.81.87,1,1.29,1.75-.24,3.27-.52,4.47-.83,0,0,0,0,0,0,.84-.89,1.29-2.22,1.94-3.27-.3-.48-.68-1.06-1.12-1.72ZM28.4,101.78c5.62,3.26,4.64-3.96,9.18-1.82-6.57-5.08-6.46,3.69-10.46.48,0,0,0,0,0,0,0,0,0,0,0,0,2.89,4.21-3.99,4.5.14,10.16-6-4.08-4.98,4.27-9.08.11.75,1.44,2.19,2.82,3.8,3.13.36.02.73.03,1.1.05.13-.01.25-.04.38-.07,2.27-1.28,1.97-4.03,5.37-1.76,0,0,0,0,0-.01,0,0,0,0,.01,0-3.69-4.41,3.4-4.64-.42-10.29Z" fill="url(#radial-gradient8)"/>
      <path d="M14.44,93.61c-.58,1.16-1.17,2.28-1.77,3.35,1.61.22,2.37-1.97,3.72-.92.05-.2.09-.39.13-.58-.79-1.21-1.47-1.71-2.08-1.85ZM11.79,98.88c.34,1.46,1.29,3.09,2.69,3.66,0,0,0,0,0,0,.35-1.07.69-2.15,1.01-3.19-1.31.72-2.25,2.16-3.7-.47ZM18.15,84.09c.1.13.19.24.29.35.06-.42.11-.84.16-1.26-.07,0-.15,0-.22-.02-.07.31-.15.62-.23.93ZM16.53,95.44s0-.02,0-.03c.29-1.35.6-2.95.91-4.66-.89.88-1.66,2-.92,4.7ZM18.91,80.24h0s0,0,0,0c0-.09.02-.19.03-.28-.01.09-.02.19-.03.28Z" fill="url(#radial-gradient9)"/>
      <path d="M1.87,14.19C-.52,19.41-.2,24.99.53,29.05c1.63,9.08,14.58,30.9,14.78,31.28,1.34,2.7,4.59,10.58,3.68,19.23-.04.38-.09.79-.15,1.2,0,0-.16,1-.21,1.23-.3,1.5-.71,3.01-1.2,4.48-3.44,10.34-10.81,19.54-10.79,20.88.02.84.99,2.15,2.15,3.29.99.96,2.02,1.74,2.83,2.05,0,0,.26.1.38.12,3.34.69,9.16,1.19,16.8,1.19,10.14,0,21.12-1.34,21.12-3.25,0-1.77-8.73-10.99-14.44-28.1h0c-2.18-6.39-5.38-15.88-9.05-21.62h0c-5.33-8.66-12.42-17.63-13.9-20-1.78-2.85-2.79-5.47-3.27-7.81,0,0-6.53-18.32,22.01-26.81l-3.67-6.41h0C11.91.42,4.79,6.97,1.87,14.19Z" fill="url(#radial-gradient10)"/>
      <path d="M1.87,14.19C-.52,19.41-.2,24.99.53,29.05c1.63,9.08,14.58,30.9,14.78,31.28,1.34,2.7,4.59,10.58,3.68,19.23-.04.38-.09.79-.15,1.2,0,0-.16,1-.21,1.23-.3,1.5-.71,3.01-1.2,4.48-3.44,10.34-10.81,19.54-10.79,20.88.02.84.99,2.15,2.15,3.29.99.96,2.02,1.74,2.83,2.05,0,0,.26.1.38.12,3.34.69,9.16,1.19,16.8,1.19,10.14,0,21.12-1.34,21.12-3.25,0-1.77-8.73-10.99-14.44-28.1h0c-2.18-6.39-5.38-15.88-9.05-21.62h0c-5.33-8.66-12.42-17.63-13.9-20-1.78-2.85-2.79-5.47-3.27-7.81,0,0-6.53-18.32,22.01-26.81l-3.67-6.41h0C11.91.42,4.79,6.97,1.87,14.19Z" fill="url(#radial-gradient11)"/>
      <path d="M17.18,47.51h0c-2.23-3.06-4-5.42-4.66-6.48-1.78-2.85-2.79-5.47-3.27-7.81,0,0-5-14.04,12.89-23.23C3.39,18.84,6.93,32.59,11.78,40.28c.72,1.14,2.83,3.81,5.4,7.23Z" fill="#f2f2f2"/>
      <path d="M27.59,0h0l3.67,6.41s15.56,5.61,17.81,18.31c2.46,13.9-10.19,38.94-11.18,40.87,5.64-10.98,12.58-24.03,15.72-34.54,3.15-10.55-.94-29.24-26.01-31.05Z" fill="url(#radial-gradient12)"/>
      <path d="M27.59,0h0l3.67,6.41s15.56,5.61,17.81,18.31c2.46,13.9-10.19,38.94-11.18,40.87,5.64-10.98,12.58-24.03,15.72-34.54,3.15-10.55-.94-29.24-26.01-31.05Z" fill="url(#radial-gradient13)"/>
      <path d="M27.59,0h0l3.67,6.41s15.56,5.61,17.81,18.31c2.46,13.9-10.19,38.94-11.18,40.87,5.64-10.98,12.58-24.03,15.72-34.54,3.15-10.55-.94-29.24-26.01-31.05Z" fill="url(#radial-gradient14)"/>
    </g>
    <polygon points="47.47 99.32 47.06 98.6 47.35 98.43 48.37 100.2 48.08 100.37 47.67 99.65 45.64 100.83 45.44 100.49 47.47 99.32" fill="#fff"/>
    <polygon points="48.57 100.54 48.89 101.09 47.38 102.93 49.72 102.53 50.04 103.09 47.72 104.43 47.52 104.09 49.53 102.93 49.53 102.93 47.07 103.32 46.89 102.99 48.45 101.06 48.45 101.06 46.44 102.22 46.25 101.88 48.57 100.54" fill="#fff"/>
  </g>
  <g>
    <polygon points="67.62 60.23 72.93 60.23 72.93 54.07 76.75 54.07 78.11 50.34 72.93 50.34 72.93 46.89 79.36 46.89 80.71 43.17 67.62 43.17 67.62 60.23" fill="#fff"/>
    <path d="M113.39,43.17h-5.52l-6.22,17.06h5.23l.66-2.29h6l.69,2.29h5.36l-6.21-17.06ZM108.5,54.66l2.05-7.11,2.12,7.11h-4.17Z" fill="#fff"/>
    <rect x="82.34" y="43.17" width="5.31" height="17.06" fill="#fff"/>
    <polygon points="96.61 50.34 96.61 46.89 103.05 46.89 104.4 43.17 91.3 43.17 91.3 60.23 96.61 60.23 96.61 54.07 100.43 54.07 101.79 50.34 96.61 50.34" fill="#fff"/>
    <path d="M234.1,52.99c0,.57-.05,1.1-.13,1.6-.09.5-.24.94-.46,1.32-.22.38-.52.69-.89.9-.37.22-.86.33-1.44.33s-1.07-.11-1.44-.33c-.37-.22-.67-.52-.89-.9-.22-.38-.38-.82-.46-1.32-.09-.5-.13-1.03-.13-1.6v-9.83h-4.55v10.59c0,1.17.18,2.18.54,3.03.36.85.87,1.55,1.53,2.1.66.55,1.45.97,2.37,1.23.92.27,1.94.4,3.04.4s2.12-.14,3.04-.4c.92-.27,1.71-.68,2.37-1.23.66-.55,1.17-1.26,1.53-2.1.36-.85.54-1.86.54-3.03v-10.59h-4.55v9.83Z" fill="#fff"/>
    <path d="M252.56,44.52c-1.24-.91-3.17-1.36-5.79-1.36h-5.43v17.06h4.55v-5.96h1.76c2.13,0,3.8-.48,4.99-1.45,1.19-.97,1.78-2.32,1.78-4.05,0-1.92-.62-3.34-1.86-4.24ZM249.65,49.8c-.15.3-.35.55-.6.73-.25.19-.55.32-.89.39-.34.07-.71.11-1.1.11h-1.17v-4.64h1.17c.39,0,.76.04,1.1.11.34.07.64.2.89.38s.45.42.6.71c.15.29.22.66.22,1.1s-.07.81-.22,1.11Z" fill="#fff"/>
    <path d="M219.61,56.89c-.73.17-1.48.26-2.22.26-.83,0-1.6-.12-2.3-.37-.7-.24-1.3-.6-1.8-1.06-.5-.47-.89-1.03-1.17-1.7-.28-.67-.43-1.42-.43-2.25s.13-1.54.38-2.21c.25-.68.61-1.26,1.08-1.75.46-.49,1.02-.87,1.67-1.15.65-.28,1.39-.42,2.2-.42s1.54.1,2.26.29c.73.19,1.45.5,2.19.9l.37-3.69c-.83-.24-1.66-.45-2.49-.62-.83-.17-1.69-.26-2.57-.26-1.4,0-2.7.18-3.9.55-1.2.37-2.23.92-3.1,1.66-.87.74-1.55,1.67-2.04,2.79-.49,1.12-.73,2.42-.73,3.9,0,1.61.3,2.98.89,4.1.59,1.12,1.36,2.02,2.3,2.7.94.68,1.99,1.18,3.15,1.49,1.16.31,2.32.47,3.46.47s2.13-.07,2.91-.22c.78-.15,1.5-.3,2.15-.46l-.22-3.57c-.62.24-1.3.45-2.03.62Z" fill="#fff"/>
    <path d="M194.11,51.52v-.05c.96-.33,1.7-.8,2.23-1.43.52-.63.78-1.48.78-2.56,0-.73-.14-1.37-.42-1.92-.28-.55-.66-.99-1.16-1.35-.5-.35-1.08-.61-1.76-.79-.68-.18-1.41-.27-2.21-.27h-7.85v17.06h7.19c.77,0,1.54-.06,2.33-.19.79-.13,1.5-.38,2.14-.75.64-.37,1.16-.87,1.56-1.5.41-.64.61-1.47.61-2.49,0-2.04-1.15-3.29-3.45-3.77ZM188.27,46.39h1.32c.37,0,.74.02,1.1.05.36.03.68.11.95.22.28.11.5.29.67.51.17.23.26.54.26.93,0,.36-.09.66-.27.89-.18.24-.41.42-.7.55-.29.13-.61.22-.96.28-.36.06-.73.09-1.1.09h-1.27v-3.52ZM192.72,56.07c-.2.26-.46.46-.78.6-.33.14-.69.23-1.1.27-.41.04-.82.06-1.22.06h-1.34v-4.01h1.39c.39,0,.79.02,1.19.06.4.04.76.13,1.08.26.32.13.58.33.78.61.2.28.31.64.31,1.1s-.1.79-.29,1.05Z" fill="#fff"/>
    <path d="M175.48,43.17h-5.57l-6.48,17.06h4.62l1.34-3.64h6.4l1.27,3.64h4.99l-6.58-17.06ZM170.45,53.36l2.2-6.67h.05l2.03,6.67h-4.28Z" fill="#fff"/>
    <path d="M161.16,55.58c-.21-.52-.39-.99-.53-1.41-.14-.42-.29-.78-.45-1.1-.16-.32-.35-.58-.57-.79-.22-.21-.51-.37-.87-.46v-.05c1.11-.26,1.93-.76,2.47-1.49.54-.73.81-1.67.81-2.81,0-.73-.14-1.37-.43-1.91-.29-.54-.68-.99-1.19-1.35-.5-.36-1.09-.62-1.76-.79-.67-.17-1.38-.26-2.13-.26h-8.12v17.06h4.55v-6.75h.95c.42,0,.79.05,1.09.16.3.11.57.3.81.57.24.28.46.65.66,1.13.2.47.42,1.08.65,1.81l.98,3.08h4.74l-1.66-4.64ZM157.15,49.4c-.21.26-.48.46-.79.59-.32.13-.68.21-1.08.23-.4.02-.78.04-1.14.04h-1.2v-3.86h1.2c.44,0,.86.02,1.26.07.4.05.75.14,1.05.27.3.13.55.32.73.58.19.25.28.57.28.97,0,.49-.11.86-.32,1.12Z" fill="#fff"/>
    <path d="M140.16,43.17h-5.57l-6.48,17.06h4.62l1.34-3.64h6.4l1.27,3.64h4.99l-6.58-17.06ZM135.12,53.36l2.2-6.67h.05l2.03,6.67h-4.28Z" fill="#fff"/>
  </g>
  <g>
    <path d="M222.78,85.42s-2.58,0-4.01,0c1.13-1.02,8.19-7.54,8.19-10.74,0-3.91-2.89-6.11-6.57-6.11-4.17,0-6.76,2.89-7.06,5.35l-.34,2.15,1.95.31c1.25.2,2.11-.55,2.5-1.74.46-1.42,1.38-2,2.66-2s2.83.86,2.56,2.43c-.28,1.58-9.46,10.38-9.46,10.38,0,2.37,1.91,4.27,4.27,4.27h9.58c0-2.36-1.91-4.29-4.27-4.29Z" fill="#fff"/>
    <path d="M200.71,68.56c-6.04,0-11.09,4.97-11.09,11.05s5.04,10.95,11.09,10.95,11.12-4.88,11.12-10.95-5.14-11.05-11.12-11.05ZM200.71,86.46c-3.87,0-6.74-2.9-6.74-6.84s2.87-6.94,6.74-6.94,6.78,2.94,6.78,6.94-2.9,6.84-6.78,6.84Z" fill="#fff"/>
    <path d="M184.12,85.42s-2.58,0-4.01,0c1.13-1.02,8.19-7.54,8.19-10.74,0-3.91-2.89-6.11-6.57-6.11-4.17,0-6.76,2.89-7.06,5.35l-.34,2.15,1.95.31c1.25.2,2.11-.55,2.5-1.74.46-1.42,1.38-2,2.66-2s2.83.86,2.56,2.43c-.28,1.58-9.46,10.38-9.46,10.38,0,2.37,1.91,4.27,4.27,4.27h9.58c0-2.36-1.91-4.29-4.27-4.29Z" fill="#fff"/>
    <path d="M107.6,69.34l-8.5,20.38h1.16c4.13,0,4.8-3.47,6.23-7.16l2.91-7.56,3.14,8.18c-2.95-1.65-5.12-.96-6.02,2.32,0,0,4.06.46,7.43,3.06,1.46,1.13,1.57,1.16,3.57,1.16h2.32l-7.38-17.18c-.83-1.94-2.74-3.2-4.86-3.2Z" fill="#fff"/>
    <path d="M133.14,69.34h-12.85c-2.25,0-4.08,1.83-4.08,4.08h5.58v16.3h0c2.44,0,4.42-1.98,4.42-4.41v-11.89h5.13l1.8-4.08Z" fill="#fff"/>
    <path d="M136.22,69.34l-8.5,20.38h1.16c4.13,0,4.8-3.47,6.23-7.16l2.91-7.56,3.14,8.18c-2.95-1.65-5.12-.96-6.02,2.32,0,0,4.06.46,7.43,3.06,1.46,1.13,1.57,1.16,3.57,1.16h2.32l-7.38-17.18c-.83-1.94-2.74-3.2-4.86-3.2Z" fill="#fff"/>
    <path d="M90.79,86.37c1.06.97,1.83,2.24,2.18,3.67,5.36-1.78,7.76-6.25,7.76-10.66,0-4.86-4.34-10.82-11.12-10.82s-11.08,5.28-11.08,11.31c0,4.48,3.35,9.09,8.41,10.37.51,3.25,3.11,5.9,6.49,5.88l-1.56-6.01c-.6-2.32-2.42-4.07-4.67-4.64-1.93-.49-4.34-2.02-4.34-5.85s2.64-6.95,6.74-6.95,6.78,3.43,6.78,6.63-1.68,6.43-5.6,7.06Z" fill="#fff"/>
    <path d="M165.82,77.38c-.04-4.46-3.75-8.03-8.21-8.03h-7.93s-.05,20.38-.05,20.38c2.44,0,4.41-1.98,4.41-4.42l-.02-11.96h3.47c2.09,0,3.88,1.6,4,3.69.13,2.38-1.4,4.19-3.73,4.19h-2s-1.2,4.45,4.58,8.5h5.49s-4.23-2.95-4.91-5.11c2.91-1.17,4.94-3.89,4.91-7.23Z" fill="#fff"/>
    <path d="M236.08,76.01c-.57.06-1.4.22-1.92.33l.14-2.28.04-.64h.79c1.43,0,4.01,0,4.01,0,1.78,0,3.3-1.11,3.94-2.67.18-.43.3-.9.32-1.42h-9.13c-2.36,0-4.27,1.9-4.27,4.26l-.43,5.96h3.61c4.82-1.1,6.63,1.34,6.12,4.01-.3,1.57-1.82,2.81-3.7,2.81-1.29,0-2.95-.61-3.32-2.3-.27-1.23-.82-1.95-2.25-1.95l-1.75-.02-.02,1.89c-.12,2.49,3.16,6.49,7.4,6.49,3.98,0,7.13-2.44,7.74-6.31.58-3.69-1.83-8.72-7.32-8.17Z" fill="#fff"/>
  </g>
</svg>